<?xml version="1.0" encoding="UTF-8"?>
<svg xmlns="http://www.w3.org/2000/svg" xmlns:xlink="http://www.w3.org/1999/xlink" width="192px" height="192px" viewBox="0 0 192 192" version="1.1">
<g id="surface1">
<path style=" stroke:none;fill-rule:nonzero;fill:rgb(99.607843%,99.607843%,99.607843%);fill-opacity:1;" d="M 0 0 C 63.359375 0 126.71875 0 192 0 C 192 63.359375 192 126.71875 192 192 C 128.640625 192 65.28125 192 0 192 C 0 128.640625 0 65.28125 0 0 Z M 0 0 "/>
<path style=" stroke:none;fill-rule:nonzero;fill:rgb(98.431373%,75.294119%,19.607843%);fill-opacity:1;" d="M 124.125 7.820312 C 126.027344 9.003906 127.542969 10.675781 129.089844 12.332031 C 129.351562 12.601562 129.613281 12.871094 129.882812 13.152344 C 131.355469 14.695312 132.699219 16.332031 134.039062 18.011719 C 134.875 19.019531 135.753906 19.96875 136.648438 20.917969 C 137.777344 22.117188 138.859375 23.332031 139.890625 24.632812 C 141 26.03125 142.171875 27.332031 143.386719 28.625 C 144.851562 30.183594 146.226562 31.785156 147.5625 33.46875 C 148.675781 34.816406 149.878906 36.066406 151.070312 37.332031 C 152.144531 38.507812 153.144531 39.742188 154.136719 41.003906 C 154.820312 41.832031 155.550781 42.570312 156.304688 43.320312 C 157.921875 45.027344 158.929688 47.046875 159.726562 49.320312 C 159.726562 49.757812 159.726562 50.191406 159.726562 50.640625 C 161.515625 50.277344 163.304688 49.90625 165.09375 49.539062 C 165.703125 49.410156 166.3125 49.285156 166.917969 49.160156 C 167.792969 48.984375 168.667969 48.800781 169.542969 48.621094 C 170.066406 48.511719 170.59375 48.402344 171.136719 48.292969 C 172.347656 48.070312 172.347656 48.070312 173.207031 47.558594 C 171.386719 46.179688 169.148438 46.707031 167.042969 46.90625 C 165.644531 46.96875 164.613281 46.96875 163.433594 46.089844 C 163.179688 45.835938 162.925781 45.582031 162.664062 45.324219 C 162.382812 45.042969 162.097656 44.761719 161.808594 44.472656 C 161.527344 44.183594 161.242188 43.894531 160.953125 43.597656 C 160.695312 43.335938 160.4375 43.074219 160.175781 42.804688 C 158.519531 41.101562 156.898438 39.363281 155.273438 37.628906 C 154.679688 36.996094 154.085938 36.367188 153.488281 35.742188 C 152.625 34.832031 151.761719 33.914062 150.90625 32.996094 C 150.636719 32.714844 150.367188 32.433594 150.089844 32.148438 C 149.847656 31.882812 149.605469 31.621094 149.355469 31.347656 C 149.03125 31.003906 149.03125 31.003906 148.699219 30.652344 C 148.289062 29.945312 148.289062 29.945312 148.425781 28.976562 C 148.515625 28.714844 148.605469 28.453125 148.699219 28.183594 C 150.292969 28.453125 151.550781 28.980469 152.992188 29.765625 C 153.421875 30 153.855469 30.234375 154.300781 30.472656 C 154.761719 30.726562 155.21875 30.980469 155.695312 31.238281 C 156.167969 31.496094 156.640625 31.753906 157.128906 32.019531 C 160.859375 34.054688 164.566406 36.132812 168.25 38.253906 C 169.128906 38.753906 170.007812 39.25 170.890625 39.746094 C 171.441406 40.054688 171.992188 40.367188 172.542969 40.679688 C 173.019531 40.945312 173.496094 41.210938 173.984375 41.488281 C 176.027344 42.757812 177.453125 44 178.648438 46.210938 C 178.855469 46.578125 179.066406 46.945312 179.28125 47.324219 C 180.582031 51.683594 179.558594 56.574219 178.820312 60.964844 C 178.722656 61.558594 178.625 62.152344 178.527344 62.742188 C 178.328125 63.976562 178.121094 65.207031 177.914062 66.4375 C 177.652344 68 177.394531 69.5625 177.144531 71.128906 C 176.945312 72.347656 176.742188 73.566406 176.539062 74.785156 C 176.398438 75.636719 176.257812 76.492188 176.121094 77.34375 C 175.003906 83.898438 173.164062 89.832031 167.898438 93.796875 C 166.46875 94.429688 166.46875 94.429688 165.445312 94.679688 C 165.460938 95.160156 165.476562 95.640625 165.488281 96.136719 C 165.480469 107.1875 161.316406 119.65625 156.050781 129.027344 C 152.601562 126.308594 149.289062 123.417969 146.121094 120.332031 C 145.785156 120.007812 145.453125 119.683594 145.113281 119.351562 C 144.558594 118.804688 144.007812 118.257812 143.460938 117.707031 C 142.78125 117.011719 142.78125 117.011719 141.753906 116.257812 C 140.949219 116.269531 140.949219 116.269531 140.121094 116.695312 C 139.542969 116.792969 138.964844 116.875 138.382812 116.945312 C 137.625 117.039062 137.625 117.039062 136.851562 117.136719 C 139.769531 120.320312 142.808594 123.355469 146.042969 126.164062 C 146.792969 126.824219 147.542969 127.484375 148.289062 128.148438 C 148.625 128.445312 148.625 128.445312 148.96875 128.746094 C 149.667969 129.371094 150.359375 130.007812 151.046875 130.652344 C 151.265625 130.84375 151.488281 131.039062 151.714844 131.238281 C 152.316406 131.8125 152.316406 131.8125 153.191406 132.992188 C 153.28125 139.09375 146.136719 146.515625 142.472656 150.683594 C 134.351562 159.636719 124.089844 165.289062 112.75 167.78125 C 112.449219 167.84375 112.152344 167.910156 111.84375 167.980469 C 107.746094 168.855469 103.863281 169.296875 99.675781 169.101562 C 99.285156 167.238281 99.125 165.382812 98.996094 163.484375 C 98.972656 163.148438 98.949219 162.8125 98.925781 162.464844 C 98.84375 161.355469 98.769531 160.242188 98.691406 159.132812 C 98.636719 158.355469 98.582031 157.582031 98.527344 156.804688 C 98.414062 155.175781 98.300781 153.550781 98.191406 151.921875 C 98.046875 149.847656 97.902344 147.773438 97.753906 145.699219 C 97.640625 144.09375 97.53125 142.488281 97.417969 140.886719 C 97.367188 140.121094 97.3125 139.355469 97.257812 138.59375 C 96.992188 134.8125 96.746094 131.058594 96.816406 127.265625 C 95.46875 127.410156 94.121094 127.558594 92.730469 127.707031 C 92.75 128.03125 92.769531 128.359375 92.792969 128.695312 C 92.976562 131.804688 93.164062 134.914062 93.351562 138.019531 C 93.445312 139.617188 93.542969 141.214844 93.636719 142.8125 C 93.730469 144.359375 93.824219 145.90625 93.914062 147.457031 C 93.96875 148.320312 94.019531 149.183594 94.070312 150.046875 C 94.167969 151.703125 94.269531 153.355469 94.367188 155.007812 C 94.382812 155.316406 94.402344 155.628906 94.421875 155.945312 C 94.480469 156.898438 94.535156 157.851562 94.59375 158.804688 C 94.625 159.371094 94.660156 159.9375 94.695312 160.519531 C 94.792969 162.429688 94.820312 164.328125 94.800781 166.238281 C 94.796875 166.5625 94.796875 166.890625 94.792969 167.222656 C 94.789062 167.996094 94.78125 168.769531 94.773438 169.542969 C 76.53125 170.414062 59.320312 162.070312 45.988281 149.039062 C 40.390625 143.503906 35.042969 136.742188 31.457031 129.46875 C 31.457031 129.175781 31.457031 128.886719 31.457031 128.585938 C 29.453125 129.011719 27.449219 129.441406 25.449219 129.878906 C 24.175781 130.160156 22.898438 130.425781 21.617188 130.667969 C 21.15625 130.761719 20.695312 130.855469 20.222656 130.953125 C 19.820312 131.03125 19.421875 131.105469 19.007812 131.183594 C 17.574219 131.859375 17.101562 132.875 16.339844 134.3125 C 16.738281 134.214844 17.140625 134.121094 17.550781 134.023438 C 24.820312 132.335938 24.820312 132.335938 27.371094 133.597656 C 30.261719 136.324219 32.640625 139.597656 35.039062 142.820312 C 36.183594 144.304688 37.414062 145.683594 38.671875 147.050781 C 39.21875 147.964844 39.21875 147.964844 39.097656 149.179688 C 39.003906 149.503906 38.90625 149.828125 38.808594 150.164062 C 36.488281 150.394531 34.957031 149.625 32.921875 148.570312 C 32.425781 148.324219 32.425781 148.324219 31.925781 148.070312 C 30.863281 147.535156 29.804688 146.992188 28.75 146.449219 C 27.664062 145.898438 26.578125 145.347656 25.488281 144.800781 C 24.777344 144.4375 24.066406 144.078125 23.355469 143.714844 C 21.464844 142.757812 19.574219 141.820312 17.660156 140.921875 C 17.285156 140.746094 16.914062 140.574219 16.527344 140.394531 C 15.886719 140.097656 15.246094 139.804688 14.601562 139.515625 C 12.054688 138.324219 9.570312 136.628906 8.425781 133.789062 C 8.304688 133.5 8.183594 133.214844 8.058594 132.917969 C 6.609375 128.980469 7.527344 125.714844 8.785156 121.902344 C 8.933594 121.4375 9.082031 120.972656 9.234375 120.492188 C 9.710938 119.015625 10.191406 117.539062 10.671875 116.0625 C 10.988281 115.089844 11.300781 114.113281 11.613281 113.136719 C 12.222656 111.238281 12.835938 109.34375 13.449219 107.449219 C 14.308594 104.785156 15.140625 102.113281 15.953125 99.4375 C 17.5 94.363281 17.5 94.363281 18.527344 92.183594 C 20.078125 88.875 20.214844 85.886719 20.300781 82.261719 C 20.4375 77.140625 21.078125 72.515625 24.464844 68.710938 C 27.402344 65.765625 30.035156 65.441406 33.960938 65.535156 C 37.335938 65.707031 40.277344 66.382812 43.453125 67.632812 C 43.714844 67.734375 43.976562 67.835938 44.246094 67.941406 C 44.886719 68.191406 45.523438 68.445312 46.160156 68.695312 C 45.976562 68.1875 45.789062 67.679688 45.597656 67.15625 C 44.910156 65.265625 44.226562 63.375 43.542969 61.480469 C 43.246094 60.660156 42.949219 59.84375 42.652344 59.027344 C 42.222656 57.851562 41.796875 56.671875 41.375 55.496094 C 41.242188 55.128906 41.105469 54.765625 40.96875 54.390625 C 39.777344 51.050781 39.777344 51.050781 40.035156 49.320312 C 41.519531 47.582031 42.890625 47.277344 45.011719 46.953125 C 56.414062 44.949219 67.011719 38.464844 74.824219 29.316406 C 75.207031 28.941406 75.589844 28.570312 75.984375 28.183594 C 76.832031 28.234375 76.832031 28.234375 77.617188 28.625 C 78.097656 29.804688 78.476562 30.925781 78.84375 32.148438 C 79.183594 33.035156 79.53125 33.921875 79.882812 34.808594 C 80.144531 36.023438 80.050781 36.6875 79.660156 37.871094 C 78.917969 38.738281 78.210938 39.480469 77.386719 40.238281 C 77.164062 40.453125 76.941406 40.664062 76.710938 40.882812 C 76.0625 41.5 75.410156 42.109375 74.757812 42.714844 C 74.203125 43.238281 73.652344 43.761719 73.097656 44.285156 C 72.84375 44.519531 72.589844 44.757812 72.332031 45 C 71.289062 45.988281 70.265625 46.992188 69.242188 48 C 67.96875 49.253906 66.691406 50.496094 65.386719 51.714844 C 63.996094 53.019531 62.632812 54.359375 61.277344 55.707031 C 59.671875 57.300781 58.050781 58.871094 56.402344 60.410156 C 54.960938 61.777344 53.546875 63.183594 52.132812 64.585938 C 51.0625 65.613281 51.0625 65.613281 49.980469 66.515625 C 49.046875 67.355469 48.492188 68.074219 47.871094 69.191406 C 47.703125 69.492188 47.53125 69.792969 47.355469 70.105469 C 46.917969 70.882812 46.917969 70.882812 46.980469 71.78125 C 47.382812 71.78125 47.789062 71.78125 48.203125 71.78125 C 48.753906 71.03125 48.753906 71.03125 49.25 70.046875 C 50.734375 67.523438 52.644531 65.777344 54.742188 63.851562 C 55.421875 63.195312 56.105469 62.535156 56.78125 61.871094 C 57.117188 61.546875 57.453125 61.21875 57.800781 60.882812 C 58.492188 60.210938 59.183594 59.539062 59.875 58.867188 C 61.40625 57.378906 62.9375 55.894531 64.492188 54.441406 C 66.113281 52.917969 67.691406 51.351562 69.273438 49.785156 C 70.667969 48.402344 72.078125 47.050781 73.507812 45.714844 C 74.550781 44.726562 75.570312 43.722656 76.597656 42.714844 C 78.144531 41.195312 79.703125 39.691406 81.285156 38.210938 C 82.9375 36.648438 84.566406 35.054688 86.195312 33.46875 C 90.074219 29.691406 90.074219 29.691406 91.863281 28.019531 C 93.265625 26.703125 94.632812 25.355469 96 24 C 97.617188 22.394531 99.25 20.8125 100.910156 19.257812 C 101.851562 18.371094 102.78125 17.472656 103.710938 16.570312 C 104.054688 16.234375 104.398438 15.902344 104.753906 15.558594 C 105.453125 14.875 106.148438 14.183594 106.84375 13.492188 C 111.820312 8.542969 117.144531 4.871094 124.125 7.820312 Z M 124.125 7.820312 "/>
<path style=" stroke:none;fill-rule:nonzero;fill:rgb(8.235294%,22.745098%,35.294119%);fill-opacity:1;" d="M 154.007812 98.203125 C 153.867188 104.386719 152.066406 110.375 149.871094 116.035156 C 149.734375 116.390625 149.597656 116.746094 149.457031 117.113281 C 148.808594 118.722656 148.28125 119.902344 147.0625 121.101562 C 146.332031 120.460938 145.601562 119.816406 144.867188 119.175781 C 144.257812 118.636719 144.257812 118.636719 143.632812 118.089844 C 142.570312 117.136719 142.570312 117.136719 141.753906 116.257812 C 141.03125 116.394531 141.03125 116.394531 140.121094 116.695312 C 139.03125 116.867188 137.941406 117 136.851562 117.136719 C 139.769531 120.320312 142.808594 123.355469 146.042969 126.164062 C 146.792969 126.824219 147.542969 127.484375 148.289062 128.148438 C 148.511719 128.34375 148.738281 128.542969 148.96875 128.746094 C 149.667969 129.371094 150.359375 130.007812 151.046875 130.652344 C 151.265625 130.84375 151.488281 131.039062 151.714844 131.238281 C 152.316406 131.8125 152.316406 131.8125 153.191406 132.992188 C 153.28125 139.09375 146.136719 146.515625 142.472656 150.683594 C 134.351562 159.636719 124.089844 165.289062 112.75 167.78125 C 112.300781 167.878906 112.300781 167.878906 111.84375 167.980469 C 107.746094 168.855469 103.863281 169.296875 99.675781 169.101562 C 99.285156 167.238281 99.125 165.382812 98.996094 163.484375 C 98.972656 163.148438 98.949219 162.8125 98.925781 162.464844 C 98.84375 161.355469 98.769531 160.242188 98.691406 159.132812 C 98.636719 158.355469 98.582031 157.582031 98.527344 156.804688 C 98.414062 155.175781 98.300781 153.550781 98.191406 151.921875 C 98.046875 149.847656 97.902344 147.773438 97.753906 145.699219 C 97.640625 144.09375 97.53125 142.488281 97.417969 140.886719 C 97.367188 140.121094 97.3125 139.355469 97.257812 138.59375 C 96.992188 134.8125 96.746094 131.058594 96.816406 127.265625 C 94.792969 127.484375 94.792969 127.484375 92.730469 127.707031 C 92.789062 128.53125 92.789062 128.53125 92.84375 129.371094 C 92.984375 131.460938 93.121094 133.550781 93.253906 135.640625 C 93.3125 136.535156 93.375 137.429688 93.433594 138.324219 C 93.859375 144.632812 94.035156 150.886719 93.957031 157.210938 C 79.347656 157.851562 64.621094 151.324219 53.871094 140.753906 C 53.269531 140.140625 52.667969 139.523438 52.074219 138.902344 C 51.464844 138.269531 50.851562 137.648438 50.234375 137.027344 C 47.105469 133.816406 44.433594 130.296875 42.078125 126.386719 C 42.078125 126.09375 42.078125 125.804688 42.078125 125.503906 C 45.445312 124.492188 48.824219 123.570312 52.234375 122.746094 C 52.621094 122.652344 53.003906 122.558594 53.402344 122.460938 C 56.007812 121.828125 58.617188 121.195312 61.222656 120.566406 C 63.082031 120.117188 64.945312 119.664062 66.804688 119.214844 C 67.753906 118.984375 68.703125 118.753906 69.65625 118.527344 C 76.480469 116.882812 76.480469 116.882812 83.230469 114.898438 C 85.664062 114.164062 88.136719 113.617188 90.613281 113.058594 C 91.925781 112.761719 93.238281 112.457031 94.550781 112.15625 C 95.234375 111.996094 95.921875 111.839844 96.605469 111.683594 C 100.183594 110.859375 103.761719 110.011719 107.335938 109.15625 C 107.644531 109.082031 107.953125 109.007812 108.269531 108.933594 C 112.492188 107.921875 116.703125 106.859375 120.90625 105.753906 C 125.472656 104.5625 130.066406 103.523438 134.660156 102.476562 C 136.78125 101.996094 138.898438 101.503906 141.011719 101.007812 C 141.394531 100.921875 141.773438 100.832031 142.164062 100.742188 C 144.867188 100.105469 147.558594 99.4375 150.242188 98.714844 C 151.558594 98.371094 152.636719 98.203125 154.007812 98.203125 Z M 154.007812 98.203125 "/>
<path style=" stroke:none;fill-rule:nonzero;fill:rgb(8.627451%,22.745098%,35.294119%);fill-opacity:1;" d="M 124.125 7.820312 C 126.027344 9.003906 127.542969 10.675781 129.089844 12.332031 C 129.351562 12.601562 129.613281 12.871094 129.882812 13.152344 C 131.355469 14.695312 132.699219 16.332031 134.039062 18.011719 C 134.875 19.019531 135.753906 19.96875 136.648438 20.917969 C 137.777344 22.117188 138.859375 23.332031 139.890625 24.632812 C 141 26.03125 142.171875 27.332031 143.386719 28.625 C 144.851562 30.183594 146.226562 31.785156 147.5625 33.46875 C 148.675781 34.816406 149.878906 36.066406 151.070312 37.332031 C 152.144531 38.507812 153.144531 39.742188 154.136719 41.003906 C 154.820312 41.832031 155.550781 42.570312 156.304688 43.320312 C 157.917969 45.027344 158.957031 47.039062 159.726562 49.320312 C 159.726562 49.902344 159.726562 50.484375 159.726562 51.082031 C 155.308594 52.179688 150.882812 53.269531 146.449219 54.304688 C 146.136719 54.378906 145.824219 54.453125 145.5 54.53125 C 143.828125 54.914062 142.242188 55.253906 140.527344 55.046875 C 139.558594 53.726562 139.558594 53.726562 138.894531 52.402344 C 139.558594 50.46875 140.921875 49.335938 142.316406 48 C 142.785156 47.542969 143.257812 47.082031 143.730469 46.625 C 143.949219 46.40625 144.171875 46.191406 144.402344 45.96875 C 145.175781 45.203125 145.921875 44.40625 146.65625 43.597656 C 143.828125 45.976562 141.125 48.464844 138.484375 51.082031 C 137.085938 49.652344 136.125 48.007812 135.089844 46.265625 C 134.894531 45.949219 134.695312 45.636719 134.496094 45.308594 C 134.3125 45.003906 134.132812 44.699219 133.945312 44.382812 C 133.777344 44.105469 133.609375 43.828125 133.4375 43.542969 C 133.175781 42.714844 133.175781 42.714844 133.453125 41.816406 C 134.007812 40.929688 134.566406 40.277344 135.308594 39.5625 C 135.5625 39.3125 135.816406 39.0625 136.078125 38.808594 C 136.339844 38.554688 136.605469 38.296875 136.875 38.035156 C 137.402344 37.527344 137.925781 37.015625 138.449219 36.503906 C 138.679688 36.28125 138.914062 36.058594 139.152344 35.828125 C 139.761719 35.238281 139.761719 35.238281 140.121094 34.347656 C 137.792969 36.535156 135.480469 38.738281 133.175781 40.953125 C 131.835938 40.351562 131.234375 39.777344 130.488281 38.445312 C 130.308594 38.132812 130.128906 37.816406 129.945312 37.492188 C 129.761719 37.164062 129.582031 36.835938 129.394531 36.496094 C 129.207031 36.164062 129.019531 35.832031 128.828125 35.488281 C 128.367188 34.671875 127.910156 33.847656 127.457031 33.027344 C 127.835938 32.539062 128.214844 32.050781 128.597656 31.5625 C 128.808594 31.292969 129.019531 31.019531 129.238281 30.738281 C 129.875 29.984375 130.523438 29.347656 131.257812 28.707031 C 132.371094 27.867188 132.371094 27.867188 132.765625 26.863281 C 132.460938 27.136719 132.15625 27.414062 131.839844 27.699219 C 131.4375 28.058594 131.035156 28.417969 130.621094 28.789062 C 130.222656 29.148438 129.824219 29.503906 129.414062 29.871094 C 128.496094 30.640625 127.699219 31.210938 126.636719 31.707031 C 126.472656 31.394531 126.304688 31.082031 126.128906 30.757812 C 125.910156 30.355469 125.691406 29.949219 125.464844 29.53125 C 125.246094 29.128906 125.027344 28.726562 124.804688 28.308594 C 124.269531 27.253906 124.269531 27.253906 123.371094 26.863281 C 123.582031 27.191406 123.792969 27.519531 124.011719 27.859375 C 124.277344 28.292969 124.546875 28.726562 124.824219 29.175781 C 125.09375 29.601562 125.367188 30.03125 125.644531 30.476562 C 126.230469 31.707031 126.230469 31.707031 126.230469 32.628906 C 125.660156 33.804688 124.894531 34.484375 123.957031 35.339844 C 123.621094 35.652344 123.28125 35.960938 122.933594 36.28125 C 122.675781 36.515625 122.414062 36.75 122.144531 36.992188 C 120.75 36.488281 120.636719 36.261719 119.90625 34.964844 C 119.726562 34.648438 119.546875 34.332031 119.359375 34.007812 C 119.175781 33.675781 118.988281 33.34375 118.800781 33 C 118.609375 32.664062 118.421875 32.332031 118.226562 31.988281 C 117.757812 31.160156 117.296875 30.335938 116.835938 29.503906 C 117.984375 27.929688 119.175781 26.5 120.511719 25.101562 C 120.125 25.464844 119.734375 25.828125 119.335938 26.203125 C 118.160156 27.304688 118.160156 27.304688 117.242188 27.304688 C 117.242188 27.59375 117.242188 27.882812 117.242188 28.183594 C 116.839844 28.183594 116.433594 28.183594 116.015625 28.183594 C 115.449219 27.445312 115.449219 27.445312 114.917969 26.476562 C 114.742188 26.160156 114.5625 25.84375 114.378906 25.515625 C 113.972656 24.660156 113.972656 24.660156 113.972656 23.78125 C 113.703125 23.78125 113.433594 23.78125 113.15625 23.78125 C 113.429688 24.226562 113.429688 24.226562 113.707031 24.679688 C 113.9375 25.074219 114.171875 25.46875 114.410156 25.871094 C 114.757812 26.453125 114.757812 26.453125 115.113281 27.046875 C 115.609375 28.183594 115.609375 28.183594 115.609375 29.078125 C 115.007812 30.355469 114.136719 31.105469 113.132812 32.035156 C 112.570312 32.566406 112.570312 32.566406 111.996094 33.101562 C 111.558594 33.5 111.558594 33.5 111.113281 33.910156 C 109.898438 32.3125 108.878906 30.695312 107.90625 28.917969 C 107.476562 28.113281 107.476562 28.113281 106.621094 27.742188 C 106.855469 28.136719 107.09375 28.527344 107.335938 28.933594 C 107.644531 29.453125 107.949219 29.976562 108.253906 30.496094 C 108.410156 30.753906 108.566406 31.011719 108.726562 31.277344 C 109.59375 32.761719 109.890625 33.425781 109.890625 35.230469 C 109.21875 36.027344 109.21875 36.027344 108.332031 36.796875 C 107.101562 37.871094 107.101562 37.871094 106.003906 39.09375 C 105.394531 39.632812 105.394531 39.632812 104.597656 39.644531 C 103.371094 38.980469 102.9375 38.050781 102.230469 36.796875 C 101.980469 36.363281 101.726562 35.925781 101.46875 35.480469 C 100.902344 34.347656 100.902344 34.347656 100.902344 33.46875 C 100.632812 33.46875 100.363281 33.46875 100.085938 33.46875 C 100.359375 33.925781 100.636719 34.378906 100.917969 34.851562 C 101.269531 35.453125 101.621094 36.058594 101.972656 36.660156 C 102.15625 36.960938 102.339844 37.261719 102.527344 37.570312 C 103.808594 39.796875 103.808594 39.796875 103.597656 41.035156 C 102.738281 42.085938 101.828125 43.007812 100.851562 43.925781 C 100.480469 44.277344 100.109375 44.628906 99.722656 44.992188 C 99.4375 45.257812 99.152344 45.523438 98.859375 45.796875 C 97.210938 45.207031 96.765625 44.058594 95.921875 42.523438 C 95.773438 42.257812 95.621094 41.996094 95.46875 41.722656 C 94.367188 39.757812 94.367188 39.757812 94.367188 38.753906 C 94.097656 38.753906 93.828125 38.753906 93.550781 38.753906 C 95.140625 42.03125 95.140625 42.03125 96.996094 45.136719 C 97.3125 45.683594 97.3125 45.683594 97.632812 46.238281 C 97.171875 47.726562 96.757812 48.105469 95.667969 49.101562 C 95.386719 49.359375 95.105469 49.617188 94.816406 49.886719 C 92.457031 51.964844 92.457031 51.964844 91.507812 51.964844 C 91.039062 51.332031 91.039062 51.332031 90.53125 50.453125 C 90.351562 50.140625 90.167969 49.824219 89.984375 49.5 C 89.792969 49.167969 89.605469 48.835938 89.414062 48.496094 C 89.222656 48.167969 89.03125 47.839844 88.832031 47.5 C 87.421875 45.035156 87.421875 45.035156 87.421875 44.035156 C 87.152344 44.035156 86.882812 44.035156 86.605469 44.035156 C 87.121094 45.027344 87.640625 46.019531 88.160156 47.007812 C 88.308594 47.289062 88.453125 47.566406 88.601562 47.855469 C 89.226562 49.039062 89.808594 50.121094 90.617188 51.171875 C 91.097656 51.964844 91.097656 51.964844 91.109375 52.808594 C 90.488281 54.167969 89.507812 55.054688 88.46875 56.035156 C 88.261719 56.238281 88.058594 56.441406 87.84375 56.648438 C 86.308594 58.128906 86.308594 58.128906 85.378906 58.128906 C 84.710938 57.132812 84.09375 56.140625 83.488281 55.101562 C 83.316406 54.8125 83.144531 54.527344 82.96875 54.230469 C 81.703125 52.082031 81.703125 52.082031 81.703125 51.082031 C 81.433594 51.082031 81.164062 51.082031 80.886719 51.082031 C 81.011719 51.285156 81.136719 51.492188 81.265625 51.703125 C 81.835938 52.628906 82.394531 53.5625 82.953125 54.496094 C 83.152344 54.816406 83.351562 55.136719 83.554688 55.46875 C 83.738281 55.78125 83.925781 56.09375 84.117188 56.414062 C 84.289062 56.699219 84.464844 56.988281 84.640625 57.28125 C 85.054688 58.347656 84.949219 58.828125 84.5625 59.890625 C 83.878906 60.675781 83.878906 60.675781 83.03125 61.429688 C 82.734375 61.695312 82.441406 61.960938 82.140625 62.230469 C 81.859375 62.476562 81.582031 62.71875 81.292969 62.972656 C 80.90625 63.328125 80.519531 63.679688 80.121094 64.046875 C 79.25 64.734375 79.25 64.734375 78.433594 64.734375 C 77.789062 63.652344 77.183594 62.574219 76.597656 61.457031 C 75.585938 59.242188 75.585938 59.242188 73.941406 57.6875 C 74.066406 57.890625 74.191406 58.097656 74.320312 58.308594 C 74.890625 59.234375 75.449219 60.167969 76.007812 61.101562 C 76.207031 61.421875 76.40625 61.742188 76.609375 62.074219 C 76.796875 62.386719 76.980469 62.699219 77.171875 63.019531 C 77.34375 63.304688 77.519531 63.59375 77.695312 63.886719 C 78.113281 64.957031 78.007812 65.429688 77.617188 66.496094 C 76.855469 67.488281 76.855469 67.488281 75.855469 68.503906 C 75.535156 68.839844 75.21875 69.179688 74.890625 69.523438 C 72.921875 70.878906 70.898438 71.265625 68.628906 71.78125 C 68.152344 71.894531 67.675781 72.011719 67.183594 72.128906 C 65.667969 72.492188 64.148438 72.839844 62.628906 73.183594 C 61.863281 73.363281 61.863281 73.363281 61.078125 73.546875 C 57.171875 74.429688 54.054688 74.933594 50.222656 73.542969 C 49.53125 73.296875 49.53125 73.296875 48.828125 73.046875 C 48.488281 72.917969 48.148438 72.792969 47.796875 72.660156 C 49.585938 68.761719 52.140625 66.1875 55.148438 63.414062 C 55.703125 62.890625 56.253906 62.367188 56.808594 61.84375 C 57.0625 61.605469 57.316406 61.371094 57.574219 61.125 C 58.617188 60.140625 59.640625 59.136719 60.664062 58.128906 C 61.9375 56.875 63.214844 55.628906 64.519531 54.414062 C 65.910156 53.109375 67.273438 51.769531 68.628906 50.421875 C 70.238281 48.828125 71.859375 47.257812 73.507812 45.714844 C 74.550781 44.726562 75.570312 43.722656 76.597656 42.714844 C 78.144531 41.195312 79.703125 39.691406 81.285156 38.210938 C 82.9375 36.648438 84.566406 35.054688 86.195312 33.46875 C 90.074219 29.691406 90.074219 29.691406 91.863281 28.019531 C 93.265625 26.703125 94.632812 25.355469 96 24 C 97.617188 22.394531 99.25 20.8125 100.910156 19.257812 C 101.851562 18.371094 102.78125 17.472656 103.710938 16.570312 C 104.054688 16.234375 104.398438 15.902344 104.753906 15.558594 C 105.453125 14.875 106.148438 14.183594 106.84375 13.492188 C 111.820312 8.542969 117.144531 4.871094 124.125 7.820312 Z M 124.125 7.820312 "/>
<path style=" stroke:none;fill-rule:nonzero;fill:rgb(8.627451%,23.137255%,35.686275%);fill-opacity:1;" d="M 75.984375 28.183594 C 76.832031 28.234375 76.832031 28.234375 77.617188 28.625 C 78.097656 29.804688 78.476562 30.925781 78.84375 32.148438 C 79.183594 33.035156 79.53125 33.921875 79.882812 34.808594 C 80.144531 36.023438 80.050781 36.6875 79.660156 37.871094 C 78.917969 38.738281 78.210938 39.480469 77.386719 40.238281 C 77.050781 40.558594 77.050781 40.558594 76.710938 40.882812 C 76.0625 41.5 75.410156 42.109375 74.757812 42.714844 C 74.203125 43.238281 73.652344 43.761719 73.097656 44.285156 C 72.84375 44.519531 72.589844 44.757812 72.332031 45 C 71.289062 45.988281 70.265625 46.992188 69.242188 48 C 67.96875 49.253906 66.691406 50.496094 65.386719 51.714844 C 63.996094 53.019531 62.632812 54.359375 61.277344 55.707031 C 59.671875 57.300781 58.050781 58.871094 56.402344 60.410156 C 54.960938 61.777344 53.546875 63.183594 52.132812 64.585938 C 51.0625 65.613281 51.0625 65.613281 49.953125 66.484375 C 48.875 67.515625 48.699219 68.234375 48.253906 69.6875 C 47.65625 70.863281 47.65625 70.863281 46.570312 71.78125 C 44.203125 72.230469 41.808594 72 39.421875 71.847656 C 36.722656 71.699219 34.683594 72.046875 32.605469 74.0625 C 30.886719 75.789062 29.746094 77.539062 29.105469 80.007812 C 28.429688 81.359375 27.53125 81.640625 26.265625 82.246094 C 24.011719 83.550781 22.21875 85.691406 20.425781 87.632812 C 20.089844 74.144531 20.089844 74.144531 23.695312 69.578125 C 25.835938 67.175781 27.648438 65.761719 30.820312 65.496094 C 35.285156 65.519531 39.230469 65.972656 43.453125 67.632812 C 43.714844 67.734375 43.976562 67.835938 44.246094 67.941406 C 44.886719 68.191406 45.523438 68.445312 46.160156 68.695312 C 45.976562 68.1875 45.789062 67.679688 45.597656 67.15625 C 44.910156 65.265625 44.226562 63.375 43.542969 61.480469 C 43.246094 60.660156 42.949219 59.84375 42.652344 59.027344 C 42.222656 57.851562 41.796875 56.671875 41.375 55.496094 C 41.242188 55.128906 41.105469 54.765625 40.96875 54.390625 C 39.777344 51.050781 39.777344 51.050781 40.035156 49.320312 C 41.519531 47.582031 42.890625 47.277344 45.011719 46.953125 C 56.414062 44.949219 67.011719 38.464844 74.824219 29.316406 C 75.207031 28.941406 75.589844 28.570312 75.984375 28.183594 Z M 75.984375 28.183594 "/>
<path style=" stroke:none;fill-rule:nonzero;fill:rgb(9.019608%,23.137255%,35.686275%);fill-opacity:1;" d="M 38.464844 126.632812 C 39.527344 127.527344 40.121094 128.578125 40.851562 129.796875 C 50.335938 145.117188 65.308594 155.429688 81.910156 159.332031 C 86.019531 160.203125 90.1875 160.511719 94.367188 160.734375 C 94.734375 161.925781 94.824219 162.601562 94.8125 163.820312 C 94.8125 164.15625 94.8125 164.488281 94.808594 164.832031 C 94.808594 165.179688 94.804688 165.523438 94.800781 165.878906 C 94.796875 166.230469 94.796875 166.582031 94.792969 166.945312 C 94.789062 167.808594 94.78125 168.675781 94.773438 169.542969 C 76.53125 170.414062 59.320312 162.070312 45.988281 149.039062 C 39.976562 143.089844 35.140625 136.183594 31.046875 128.585938 C 32.363281 127.640625 33.371094 127.332031 34.902344 126.9375 C 35.363281 126.8125 35.828125 126.6875 36.304688 126.558594 C 37.582031 126.386719 37.582031 126.386719 38.464844 126.632812 Z M 38.464844 126.632812 "/>
<path style=" stroke:none;fill-rule:nonzero;fill:rgb(98.823529%,75.686276%,20%);fill-opacity:1;" d="M 49.855469 11.546875 C 51.066406 12.066406 51.355469 13.089844 51.875 14.3125 C 52.667969 16.414062 53.351562 18.550781 54.027344 20.695312 C 54.175781 21.164062 54.324219 21.632812 54.476562 22.113281 C 54.839844 23.253906 55.199219 24.398438 55.558594 25.542969 C 55.871094 25.359375 56.1875 25.175781 56.511719 24.988281 C 58.230469 23.992188 59.957031 23.003906 61.683594 22.019531 C 62.128906 21.765625 62.570312 21.511719 63.023438 21.253906 C 64.25 20.554688 65.480469 19.859375 66.710938 19.164062 C 67.207031 18.882812 67.699219 18.601562 68.195312 18.320312 C 68.902344 17.917969 69.609375 17.519531 70.316406 17.121094 C 70.730469 16.886719 71.144531 16.652344 71.566406 16.414062 C 72.660156 15.878906 73.5625 15.539062 74.757812 15.414062 C 76.214844 16.570312 76.941406 18.027344 77.617188 19.816406 C 77.777344 21.171875 77.792969 21.769531 77.011719 22.867188 C 73.28125 26.320312 69.339844 29.472656 65.363281 32.585938 C 64.949219 32.914062 64.949219 32.914062 64.53125 33.242188 C 57.023438 39.117188 44.773438 46.402344 35.132812 45.359375 C 33.875 44.296875 33.269531 42.980469 32.679688 41.394531 C 32.679688 40.238281 32.679688 40.238281 33.089844 39.191406 C 34.425781 37.917969 35.792969 36.988281 37.378906 36.117188 C 37.804688 35.878906 38.234375 35.640625 38.675781 35.398438 C 39.125 35.152344 39.570312 34.90625 40.035156 34.652344 C 40.953125 34.140625 41.871094 33.632812 42.789062 33.125 C 43.449219 32.757812 43.449219 32.757812 44.125 32.386719 C 46.316406 31.164062 48.488281 29.902344 50.65625 28.625 C 50.394531 25.027344 49.011719 21.785156 47.820312 18.449219 C 47.65625 17.972656 47.492188 17.496094 47.320312 17.003906 C 47.089844 16.355469 47.089844 16.355469 46.855469 15.695312 C 46.554688 14.476562 46.519531 13.917969 46.980469 12.769531 C 48.601562 11.402344 48.601562 11.402344 49.855469 11.546875 Z M 49.855469 11.546875 "/>
<path style=" stroke:none;fill-rule:nonzero;fill:rgb(9.019608%,23.137255%,35.686275%);fill-opacity:1;" d="M 156.050781 136.074219 C 157.273438 136.675781 158.210938 137.371094 159.21875 138.332031 C 159.46875 138.566406 159.71875 138.804688 159.976562 139.050781 C 160.164062 139.230469 160.351562 139.410156 160.542969 139.597656 C 159.90625 142.035156 158.839844 144.085938 157.660156 146.257812 C 157.460938 146.628906 157.257812 147 157.050781 147.378906 C 154.453125 152.113281 151.390625 156.296875 147.878906 160.292969 C 147.542969 160.6875 147.203125 161.082031 146.851562 161.488281 C 135.808594 173.914062 119.765625 179.113281 104.171875 180.109375 C 102.941406 180.132812 101.722656 180.125 100.492188 180.109375 C 100.199219 178.285156 100.0625 176.566406 100.074219 174.710938 C 100.074219 174.320312 100.074219 173.925781 100.078125 173.523438 C 100.082031 173.226562 100.082031 172.929688 100.085938 172.625 C 100.351562 172.59375 100.617188 172.5625 100.894531 172.53125 C 117.011719 170.636719 131.304688 166.449219 143.386719 154.128906 C 143.71875 153.800781 144.050781 153.46875 144.390625 153.128906 C 149.191406 148.203125 152.640625 142.144531 156.050781 136.074219 Z M 156.050781 136.074219 "/>
<path style=" stroke:none;fill-rule:nonzero;fill:rgb(99.607843%,99.215686%,98.039216%);fill-opacity:1;" d="M 134.144531 66.796875 C 135.832031 68.398438 137.457031 70.214844 137.789062 72.695312 C 137.804688 75.199219 137.316406 76.953125 136.441406 79.265625 C 136.320312 81.007812 136.320312 81.007812 137.054688 82.320312 C 138.183594 85.0625 138.203125 88.296875 137.234375 91.089844 C 135.371094 94.707031 132.9375 96.636719 129.34375 97.871094 C 127.339844 98.488281 125.308594 98.9375 123.269531 99.386719 C 122.617188 99.535156 122.617188 99.535156 121.953125 99.683594 C 120.039062 100.113281 118.398438 100.402344 116.425781 100.402344 C 116.425781 98.222656 116.425781 96.042969 116.425781 93.796875 C 117.253906 93.621094 118.078125 93.449219 118.929688 93.265625 C 119.738281 93.09375 120.546875 92.917969 121.351562 92.742188 C 121.910156 92.621094 122.46875 92.503906 123.027344 92.382812 C 123.832031 92.214844 124.636719 92.039062 125.441406 91.863281 C 125.925781 91.757812 126.410156 91.65625 126.90625 91.546875 C 128.398438 91.121094 130.011719 90.601562 131.132812 89.394531 C 131.199219 87.851562 131.199219 87.851562 131.132812 86.3125 C 130.660156 85.707031 130.660156 85.707031 129.375 85.773438 C 127.011719 85.808594 124.75 86.414062 122.449219 86.972656 C 121.582031 87.179688 120.710938 87.386719 119.839844 87.589844 C 119.460938 87.683594 119.078125 87.777344 118.683594 87.871094 C 117.652344 88.074219 117.652344 88.074219 116.015625 88.074219 C 116.015625 85.894531 116.015625 83.714844 116.015625 81.46875 C 116.808594 81.292969 117.601562 81.117188 118.417969 80.9375 C 119.195312 80.761719 119.972656 80.585938 120.746094 80.410156 C 121.542969 80.234375 122.339844 80.058594 123.136719 79.882812 C 127.707031 79.105469 127.707031 79.105469 131.132812 76.183594 C 131.300781 75.0625 131.300781 75.0625 131.132812 73.980469 C 128.546875 72.125 124.027344 74.054688 121.125 74.667969 C 120.632812 74.773438 120.140625 74.875 119.632812 74.980469 C 118.425781 75.234375 117.222656 75.488281 116.015625 75.742188 C 116.015625 73.5625 116.015625 71.382812 116.015625 69.136719 C 118.019531 68.621094 120.023438 68.113281 122.027344 67.613281 C 122.613281 67.464844 123.199219 67.316406 123.785156 67.164062 C 131.246094 65.234375 131.246094 65.234375 134.144531 66.796875 Z M 134.144531 66.796875 "/>
<path style=" stroke:none;fill-rule:nonzero;fill:rgb(99.607843%,99.215686%,98.431373%);fill-opacity:1;" d="M 89.871094 74.863281 C 89.871094 78.496094 89.871094 82.128906 89.871094 85.871094 C 90.925781 85.664062 91.980469 85.453125 93.0625 85.238281 C 93.394531 85.171875 93.722656 85.109375 94.0625 85.042969 C 95.289062 84.796875 96.453125 84.535156 97.632812 84.109375 C 100.226562 83.875 102.019531 84.25 104.171875 85.871094 C 105.65625 87.390625 106.539062 88.820312 106.71875 91.0625 C 106.804688 95.21875 106.347656 98.539062 103.660156 101.667969 C 100.839844 104.664062 97.015625 105.394531 93.292969 106.257812 C 92.421875 106.460938 91.550781 106.667969 90.679688 106.878906 C 86.449219 107.890625 86.449219 107.890625 84.5625 107.890625 C 84.550781 106.796875 84.542969 105.707031 84.535156 104.613281 C 84.53125 104.304688 84.53125 103.992188 84.527344 103.671875 C 84.523438 102.875 84.539062 102.078125 84.5625 101.285156 C 85.25 100.542969 86.164062 100.558594 87.101562 100.367188 C 87.542969 100.273438 87.984375 100.183594 88.4375 100.085938 C 89.363281 99.898438 90.289062 99.707031 91.214844 99.519531 C 93.324219 99.078125 95.429688 98.617188 97.507812 98.019531 C 97.828125 97.929688 98.152344 97.835938 98.480469 97.742188 C 99.496094 97.199219 99.703125 96.691406 100.085938 95.558594 C 100.183594 94.519531 100.183594 94.519531 100.136719 93.46875 C 100.128906 93.117188 100.121094 92.765625 100.113281 92.402344 C 100.105469 92.136719 100.09375 91.871094 100.085938 91.597656 C 96.875 91.386719 93.886719 92.175781 90.765625 92.917969 C 89.699219 93.167969 88.632812 93.414062 87.566406 93.660156 C 87.097656 93.769531 86.628906 93.882812 86.144531 93.996094 C 84.96875 94.238281 84.96875 94.238281 83.746094 94.238281 C 83.746094 88.28125 83.746094 82.320312 83.746094 76.183594 C 87.011719 74.863281 87.011719 74.863281 89.871094 74.863281 Z M 89.871094 74.863281 "/>
<path style=" stroke:none;fill-rule:nonzero;fill:rgb(9.803922%,23.529412%,35.686275%);fill-opacity:1;" d="M 165.445312 95.121094 C 165.140625 105.078125 162.503906 114.199219 158.835938 123.273438 C 158.703125 123.601562 158.570312 123.925781 158.4375 124.261719 C 158.308594 124.566406 158.183594 124.871094 158.050781 125.1875 C 157.941406 125.449219 157.832031 125.714844 157.714844 125.988281 C 157.140625 127.082031 156.371094 128.046875 155.640625 129.027344 C 153.753906 127.285156 151.867188 125.539062 149.921875 123.742188 C 150.136719 123.214844 150.347656 122.6875 150.566406 122.144531 C 153.796875 114.050781 156.195312 106.078125 157.277344 97.320312 C 163.089844 95.121094 163.089844 95.121094 165.445312 95.121094 Z M 165.445312 95.121094 "/>
<path style=" stroke:none;fill-rule:nonzero;fill:rgb(96.862745%,74.117649%,20%);fill-opacity:1;" d="M 153.191406 132.992188 C 154.269531 133.863281 155.347656 134.734375 156.460938 135.632812 C 153.164062 142.167969 149.40625 147.894531 144.613281 153.246094 C 144.285156 153.628906 143.957031 154.007812 143.621094 154.398438 C 133.558594 165.800781 117.589844 172.234375 103.148438 172.667969 C 102.734375 172.660156 102.324219 172.65625 101.898438 172.652344 C 101.476562 172.648438 101.054688 172.644531 100.621094 172.640625 C 100.308594 172.632812 99.996094 172.628906 99.675781 172.625 C 99.675781 171.460938 99.675781 170.296875 99.675781 169.101562 C 99.960938 169.09375 100.246094 169.089844 100.539062 169.082031 C 116.644531 168.296875 132.125 161.96875 143.40625 149.371094 C 146.082031 146.125 148.386719 142.628906 150.535156 138.964844 C 150.707031 138.671875 150.878906 138.378906 151.058594 138.078125 C 152.003906 136.429688 152.695312 134.875 153.191406 132.992188 Z M 153.191406 132.992188 "/>
<path style=" stroke:none;fill-rule:nonzero;fill:rgb(99.607843%,99.215686%,98.039216%);fill-opacity:1;" d="M 66.996094 80.148438 C 67.113281 83.035156 67.230469 85.921875 67.34375 88.808594 C 67.382812 89.785156 67.421875 90.765625 67.464844 91.742188 C 67.738281 98.449219 67.871094 105.136719 67.8125 111.851562 C 63.0625 113.175781 63.0625 113.175781 61.683594 113.175781 C 61.359375 109.882812 61.21875 106.640625 61.238281 103.328125 C 61.238281 102.878906 61.238281 102.425781 61.238281 101.957031 C 61.242188 100.53125 61.246094 99.105469 61.25 97.679688 C 61.253906 96.703125 61.253906 95.730469 61.257812 94.753906 C 61.261719 92.378906 61.269531 90.007812 61.277344 87.632812 C 61.03125 87.726562 60.785156 87.824219 60.53125 87.921875 C 60.203125 88.042969 59.875 88.167969 59.539062 88.292969 C 59.21875 88.417969 58.894531 88.539062 58.5625 88.664062 C 57.601562 88.953125 57.601562 88.953125 55.964844 88.953125 C 55.953125 87.863281 55.945312 86.769531 55.941406 85.679688 C 55.933594 85.210938 55.933594 85.210938 55.929688 84.734375 C 55.925781 83.941406 55.945312 83.144531 55.964844 82.347656 C 56.976562 81.257812 59.199219 81.277344 60.5625 81 C 60.953125 80.917969 61.34375 80.835938 61.746094 80.75 C 62.121094 80.675781 62.5 80.597656 62.890625 80.515625 C 63.238281 80.445312 63.582031 80.375 63.941406 80.300781 C 64.972656 80.144531 65.953125 80.121094 66.996094 80.148438 Z M 66.996094 80.148438 "/>
<path style=" stroke:none;fill-rule:nonzero;fill:rgb(97.647059%,74.901962%,19.607843%);fill-opacity:1;" d="M 119.667969 131.613281 C 120.972656 133.0625 121.457031 134 121.507812 135.992188 C 121.476562 137.585938 121.34375 138.5625 120.410156 139.816406 C 118.617188 141.574219 117.285156 142.019531 114.894531 141.96875 C 113.316406 141.675781 112.617188 140.835938 111.523438 139.597656 C 110.363281 137.722656 110.394531 136.070312 110.707031 133.871094 C 111.386719 132.382812 112.371094 131.488281 113.667969 130.597656 C 115.855469 130.113281 117.777344 130.3125 119.667969 131.613281 Z M 119.667969 131.613281 "/>
<path style=" stroke:none;fill-rule:nonzero;fill:rgb(99.607843%,99.607843%,98.823529%);fill-opacity:1;" d="M 104.988281 71.339844 C 104.988281 73.519531 104.988281 75.699219 104.988281 77.945312 C 103.199219 78.390625 101.414062 78.828125 99.625 79.265625 C 99.121094 79.390625 98.613281 79.519531 98.09375 79.648438 C 97.605469 79.765625 97.113281 79.886719 96.609375 80.007812 C 96.160156 80.121094 95.710938 80.230469 95.25 80.34375 C 93.957031 80.585938 93.957031 80.585938 91.507812 80.585938 C 91.507812 78.40625 91.507812 76.226562 91.507812 73.980469 C 93.097656 73.601562 94.6875 73.226562 96.28125 72.851562 C 96.820312 72.726562 97.363281 72.597656 97.902344 72.46875 C 98.683594 72.28125 99.464844 72.101562 100.242188 71.917969 C 100.945312 71.75 100.945312 71.75 101.664062 71.582031 C 102.945312 71.339844 102.945312 71.339844 104.988281 71.339844 Z M 104.988281 71.339844 "/>
<path style=" stroke:none;fill-rule:nonzero;fill:rgb(10.196079%,23.529412%,35.294119%);fill-opacity:1;" d="M 115.609375 44.035156 C 116.941406 45.761719 118.074219 47.566406 119.183594 49.457031 C 119.351562 49.742188 119.519531 50.027344 119.691406 50.320312 C 120.101562 51.011719 120.511719 51.707031 120.917969 52.402344 C 119.738281 53.972656 118.582031 55.421875 117.164062 56.753906 C 116.890625 57.015625 116.613281 57.277344 116.332031 57.546875 C 115.609375 58.128906 115.609375 58.128906 114.792969 58.128906 C 113.902344 56.925781 113.191406 55.585938 112.441406 54.273438 C 112.226562 53.910156 112.007812 53.546875 111.785156 53.175781 C 111.582031 52.824219 111.378906 52.46875 111.171875 52.109375 C 110.984375 51.785156 110.796875 51.460938 110.605469 51.128906 C 110.296875 50.203125 110.296875 50.203125 110.585938 49.273438 C 111.367188 48.042969 112.375 47.105469 113.414062 46.128906 C 113.625 45.925781 113.835938 45.722656 114.050781 45.515625 C 114.566406 45.019531 115.089844 44.527344 115.609375 44.035156 Z M 115.609375 44.035156 "/>
<path style=" stroke:none;fill-rule:nonzero;fill:rgb(10.588235%,23.529412%,35.294119%);fill-opacity:1;" d="M 98.449219 47.558594 C 99.261719 48.617188 99.898438 49.808594 100.570312 50.972656 C 100.765625 51.292969 100.960938 51.613281 101.160156 51.945312 C 101.339844 52.257812 101.523438 52.570312 101.710938 52.890625 C 101.878906 53.179688 102.046875 53.464844 102.21875 53.757812 C 102.617188 54.820312 102.503906 55.3125 102.128906 56.367188 C 100.898438 57.984375 99.324219 59.730469 97.632812 60.769531 C 96.238281 60.269531 96.125 60.042969 95.394531 58.746094 C 95.214844 58.429688 95.035156 58.113281 94.847656 57.785156 C 94.570312 57.289062 94.570312 57.289062 94.289062 56.78125 C 94.101562 56.445312 93.910156 56.113281 93.714844 55.765625 C 93.25 54.941406 92.785156 54.113281 92.324219 53.285156 C 92.625 52.960938 92.925781 52.636719 93.238281 52.300781 C 93.914062 51.570312 94.585938 50.835938 95.25 50.097656 C 95.523438 49.796875 95.796875 49.492188 96.078125 49.183594 C 96.351562 48.875 96.628906 48.570312 96.910156 48.253906 C 97.632812 47.558594 97.632812 47.558594 98.449219 47.558594 Z M 98.449219 47.558594 "/>
<path style=" stroke:none;fill-rule:nonzero;fill:rgb(10.588235%,23.529412%,35.294119%);fill-opacity:1;" d="M 109.890625 35.667969 C 110.894531 35.765625 111.371094 35.933594 112.058594 36.738281 C 112.550781 37.597656 113.039062 38.460938 113.515625 39.332031 C 113.691406 39.628906 113.863281 39.925781 114.042969 40.234375 C 115.25 42.410156 115.25 42.410156 115.039062 43.664062 C 114.125 44.796875 113.132812 45.804688 112.085938 46.789062 C 111.875 46.992188 111.664062 47.191406 111.445312 47.402344 C 110.929688 47.898438 110.410156 48.390625 109.890625 48.878906 C 108.578125 47.625 107.65625 46.070312 106.699219 44.503906 C 106.519531 44.230469 106.34375 43.957031 106.164062 43.675781 C 105.667969 42.867188 105.667969 42.867188 104.988281 41.394531 C 105.304688 39.835938 106.328125 39.035156 107.4375 38.035156 C 108.285156 37.265625 109.105469 36.515625 109.890625 35.667969 Z M 109.890625 35.667969 "/>
<path style=" stroke:none;fill-rule:nonzero;fill:rgb(10.588235%,23.529412%,35.294119%);fill-opacity:1;" d="M 109.074219 50.640625 C 110.449219 51.136719 110.578125 51.351562 111.3125 52.621094 C 111.492188 52.929688 111.671875 53.242188 111.859375 53.5625 C 112.042969 53.886719 112.226562 54.214844 112.417969 54.550781 C 112.605469 54.875 112.796875 55.195312 112.992188 55.527344 C 114.382812 57.957031 114.382812 57.957031 114.382812 59.449219 C 112.476562 61.648438 110.582031 62.425781 107.847656 62.53125 C 107.386719 61.835938 106.925781 61.136719 106.46875 60.441406 C 106.210938 60.050781 105.957031 59.664062 105.691406 59.265625 C 104.171875 56.8125 104.171875 56.8125 104.171875 55.046875 C 104.828125 54.289062 104.828125 54.289062 105.703125 53.503906 C 105.988281 53.246094 106.269531 52.988281 106.5625 52.71875 C 106.851562 52.46875 107.140625 52.21875 107.4375 51.964844 C 107.71875 51.703125 108 51.445312 108.289062 51.179688 C 108.546875 51 108.804688 50.824219 109.074219 50.640625 Z M 109.074219 50.640625 "/>
<path style=" stroke:none;fill-rule:nonzero;fill:rgb(10.588235%,23.921569%,35.294119%);fill-opacity:1;" d="M 104.171875 41.394531 C 105.304688 42.890625 106.367188 44.410156 107.363281 46.019531 C 107.617188 46.421875 107.871094 46.828125 108.136719 47.242188 C 108.664062 48.441406 108.664062 48.441406 108.664062 49.558594 C 108.117188 51.007812 107.351562 51.738281 106.265625 52.761719 C 105.722656 53.285156 105.722656 53.285156 105.167969 53.816406 C 104.171875 54.605469 104.171875 54.605469 102.945312 54.605469 C 102.074219 53.585938 101.449219 52.367188 100.773438 51.191406 C 100.578125 50.871094 100.382812 50.550781 100.179688 50.21875 C 99.90625 49.75 99.90625 49.75 99.628906 49.273438 C 99.378906 48.84375 99.378906 48.84375 99.121094 48.40625 C 98.859375 47.558594 98.859375 47.558594 99.152344 46.644531 C 99.925781 45.398438 100.9375 44.464844 101.972656 43.484375 C 102.183594 43.285156 102.394531 43.082031 102.613281 42.875 C 103.128906 42.378906 103.648438 41.886719 104.171875 41.394531 Z M 104.171875 41.394531 "/>
<path style=" stroke:none;fill-rule:nonzero;fill:rgb(10.588235%,23.529412%,35.294119%);fill-opacity:1;" d="M 91.507812 53.726562 C 92.894531 55.105469 93.929688 56.632812 94.925781 58.347656 C 95.082031 58.597656 95.238281 58.847656 95.398438 59.105469 C 96.464844 60.933594 96.464844 60.933594 96.21875 62.152344 C 95.421875 63.195312 94.574219 64.019531 93.601562 64.871094 C 93.246094 65.1875 92.894531 65.503906 92.53125 65.828125 C 91.507812 66.496094 91.507812 66.496094 90.6875 66.410156 C 89.679688 65.972656 89.441406 65.574219 88.910156 64.566406 C 88.746094 64.269531 88.585938 63.972656 88.421875 63.667969 C 88.261719 63.355469 88.097656 63.046875 87.933594 62.726562 C 87.765625 62.410156 87.597656 62.097656 87.421875 61.777344 C 87.007812 61.003906 86.601562 60.226562 86.195312 59.449219 C 87.816406 57.308594 89.511719 55.460938 91.507812 53.726562 Z M 91.507812 53.726562 "/>
<path style=" stroke:none;fill-rule:nonzero;fill:rgb(11.372549%,23.921569%,35.294119%);fill-opacity:1;" d="M 131.949219 42.714844 C 132.21875 42.714844 132.488281 42.714844 132.765625 42.714844 C 133.636719 43.921875 134.332031 45.261719 135.0625 46.570312 C 135.273438 46.933594 135.484375 47.296875 135.703125 47.667969 C 136 48.199219 136 48.199219 136.304688 48.734375 C 136.488281 49.058594 136.671875 49.382812 136.859375 49.714844 C 137.257812 50.640625 137.257812 50.640625 137.257812 52.402344 C 136.394531 53.441406 136.394531 53.441406 135.269531 54.496094 C 134.898438 54.847656 134.527344 55.199219 134.148438 55.5625 C 133.175781 56.367188 133.175781 56.367188 132.359375 56.367188 C 131.488281 55.160156 130.792969 53.820312 130.058594 52.515625 C 129.847656 52.152344 129.636719 51.789062 129.421875 51.414062 C 129.222656 51.0625 129.023438 50.707031 128.816406 50.347656 C 128.542969 49.863281 128.542969 49.863281 128.261719 49.367188 C 127.863281 48.441406 127.863281 48.441406 127.863281 46.679688 C 128.550781 45.863281 128.550781 45.863281 129.445312 45.082031 C 129.742188 44.824219 130.035156 44.5625 130.335938 44.292969 C 130.597656 44.0625 130.863281 43.832031 131.132812 43.597656 C 131.402344 43.304688 131.671875 43.015625 131.949219 42.714844 Z M 131.949219 42.714844 "/>
<path style=" stroke:none;fill-rule:nonzero;fill:rgb(10.588235%,23.921569%,35.294119%);fill-opacity:1;" d="M 120.917969 38.753906 C 121.1875 38.753906 121.457031 38.753906 121.734375 38.753906 C 122.628906 39.957031 123.335938 41.296875 124.085938 42.605469 C 124.300781 42.96875 124.519531 43.332031 124.746094 43.707031 C 124.945312 44.058594 125.148438 44.410156 125.355469 44.773438 C 125.542969 45.097656 125.730469 45.417969 125.921875 45.75 C 126.230469 46.679688 126.230469 46.679688 125.929688 47.621094 C 125.25 48.699219 124.441406 49.464844 123.523438 50.3125 C 123.023438 50.777344 123.023438 50.777344 122.511719 51.253906 C 122.128906 51.605469 122.128906 51.605469 121.734375 51.964844 C 120.261719 50.503906 119.214844 48.890625 118.136719 47.089844 C 117.878906 46.679688 117.878906 46.679688 117.617188 46.257812 C 117.183594 45.539062 116.800781 44.789062 116.425781 44.035156 C 116.890625 42.53125 117.332031 42.148438 118.441406 41.148438 C 119.296875 40.367188 120.125 39.605469 120.917969 38.753906 Z M 120.917969 38.753906 "/>
<path style=" stroke:none;fill-rule:nonzero;fill:rgb(10.980392%,23.921569%,35.294119%);fill-opacity:1;" d="M 126.636719 33.46875 C 128.113281 34.925781 129.160156 36.539062 130.238281 38.339844 C 130.410156 38.613281 130.582031 38.890625 130.757812 39.171875 C 131.1875 39.890625 131.574219 40.640625 131.949219 41.394531 C 131.484375 42.890625 131.054688 43.28125 129.957031 44.285156 C 129.671875 44.546875 129.386719 44.8125 129.09375 45.085938 C 128.273438 45.796875 128.273438 45.796875 127.046875 46.679688 C 126.082031 45.21875 125.132812 43.75 124.1875 42.273438 C 123.964844 41.941406 123.742188 41.605469 123.515625 41.261719 C 123.324219 40.960938 123.132812 40.660156 122.9375 40.347656 C 122.761719 40.082031 122.589844 39.816406 122.410156 39.539062 C 122.144531 38.753906 122.144531 38.753906 122.386719 37.890625 C 123.09375 36.78125 123.90625 35.992188 124.851562 35.121094 C 125.351562 34.652344 125.351562 34.652344 125.863281 34.175781 C 126.117188 33.941406 126.375 33.707031 126.636719 33.46875 Z M 126.636719 33.46875 "/>
<path style=" stroke:none;fill-rule:nonzero;fill:rgb(10.588235%,23.529412%,35.294119%);fill-opacity:1;" d="M 116.015625 29.945312 C 117.421875 31.332031 118.410156 32.875 119.386719 34.625 C 119.535156 34.882812 119.683594 35.140625 119.835938 35.40625 C 120.917969 37.316406 120.917969 37.316406 120.917969 38.3125 C 120.234375 39.042969 120.234375 39.042969 119.335938 39.851562 C 118.472656 40.640625 117.632812 41.414062 116.835938 42.273438 C 115.828125 42.179688 115.351562 42.011719 114.664062 41.207031 C 114.171875 40.347656 113.683594 39.484375 113.207031 38.613281 C 112.945312 38.167969 112.945312 38.167969 112.679688 37.710938 C 111.46875 35.527344 111.46875 35.527344 111.707031 34.253906 C 112.492188 33.277344 113.320312 32.4375 114.230469 31.597656 C 114.730469 31.128906 114.730469 31.128906 115.242188 30.652344 C 115.496094 30.417969 115.753906 30.1875 116.015625 29.945312 Z M 116.015625 29.945312 "/>
<path style=" stroke:none;fill-rule:nonzero;fill:rgb(11.372549%,23.921569%,35.294119%);fill-opacity:1;" d="M 126.636719 48 C 128.050781 49.433594 128.96875 51.105469 129.984375 52.871094 C 130.171875 53.195312 130.363281 53.515625 130.558594 53.847656 C 130.824219 54.3125 130.824219 54.3125 131.097656 54.785156 C 131.261719 55.066406 131.425781 55.351562 131.59375 55.640625 C 131.949219 56.367188 131.949219 56.367188 131.949219 57.246094 C 131.253906 57.472656 130.554688 57.691406 129.855469 57.910156 C 129.464844 58.03125 129.078125 58.152344 128.675781 58.28125 C 127.355469 58.59375 126.351562 58.78125 125.003906 58.570312 C 124.125 57.570312 124.125 57.570312 123.394531 56.257812 C 123.148438 55.828125 122.898438 55.398438 122.644531 54.957031 C 122.144531 53.726562 122.144531 53.726562 122.140625 52.816406 C 122.75 51.550781 123.625 50.796875 124.621094 49.871094 C 124.996094 49.519531 125.371094 49.167969 125.757812 48.804688 C 126.050781 48.539062 126.339844 48.273438 126.636719 48 Z M 126.636719 48 "/>
<path style=" stroke:none;fill-rule:nonzero;fill:rgb(94.509804%,94.509804%,95.686275%);fill-opacity:1;" d="M 109.890625 113.613281 C 110.144531 117.234375 110.144531 117.234375 109.277344 118.402344 C 108.941406 118.566406 108.601562 118.730469 108.253906 118.898438 C 107.792969 119.136719 107.328125 119.371094 106.851562 119.613281 C 104.558594 120.503906 102.097656 120.644531 99.675781 120.660156 C 99.269531 120.21875 99.269531 120.21875 99.226562 119.308594 C 99.234375 118.949219 99.238281 118.585938 99.242188 118.210938 C 99.246094 117.847656 99.25 117.484375 99.253906 117.109375 C 99.257812 116.828125 99.261719 116.546875 99.269531 116.257812 C 102.96875 114.121094 105.71875 113.535156 109.890625 113.613281 Z M 109.890625 113.613281 "/>
<path style=" stroke:none;fill-rule:nonzero;fill:rgb(94.509804%,94.509804%,95.686275%);fill-opacity:1;" d="M 123.777344 110.089844 C 124.03125 113.714844 124.03125 113.714844 123.164062 114.878906 C 122.828125 115.042969 122.492188 115.207031 122.144531 115.375 C 121.679688 115.613281 121.21875 115.847656 120.742188 116.089844 C 118.449219 116.980469 115.988281 117.121094 113.566406 117.136719 C 113.15625 116.695312 113.15625 116.695312 113.117188 115.789062 C 113.121094 115.425781 113.128906 115.0625 113.132812 114.6875 C 113.136719 114.324219 113.140625 113.960938 113.144531 113.585938 C 113.148438 113.304688 113.152344 113.023438 113.15625 112.734375 C 116.859375 110.597656 119.605469 110.011719 123.777344 110.089844 Z M 123.777344 110.089844 "/>
<path style=" stroke:none;fill-rule:nonzero;fill:rgb(96.862745%,96.862745%,97.647059%);fill-opacity:1;" d="M 137.667969 106.570312 C 137.921875 110.175781 137.921875 110.175781 137.082031 111.359375 C 133.792969 112.914062 130.605469 113.53125 127.046875 114.054688 C 127.179688 112.164062 127.316406 110.277344 127.457031 108.332031 C 134.28125 106.308594 134.28125 106.308594 137.667969 106.570312 Z M 137.667969 106.570312 "/>
<path style=" stroke:none;fill-rule:nonzero;fill:rgb(97.254902%,74.509805%,19.607843%);fill-opacity:1;" d="M 79.25 131.898438 C 80.832031 132.304688 81.464844 132.949219 82.519531 134.3125 C 82.925781 136.117188 82.679688 137.464844 81.957031 139.128906 C 81.214844 140.144531 80.84375 140.421875 79.664062 140.597656 C 77.941406 140.679688 77.039062 140.640625 75.550781 139.625 C 74.484375 137.8125 74.328125 136.402344 74.757812 134.3125 C 75.941406 132.359375 77.050781 131.730469 79.25 131.898438 Z M 79.25 131.898438 "/>
<path style=" stroke:none;fill-rule:nonzero;fill:rgb(12.156863%,24.313726%,35.294119%);fill-opacity:1;" d="M 84.96875 59.890625 C 86.617188 60.480469 87.066406 61.628906 87.90625 63.164062 C 88.058594 63.429688 88.207031 63.691406 88.363281 63.964844 C 89.464844 65.933594 89.464844 65.933594 89.464844 66.9375 C 88.195312 67.246094 86.929688 67.542969 85.660156 67.84375 C 85.300781 67.933594 84.941406 68.019531 84.570312 68.109375 C 84.222656 68.191406 83.875 68.273438 83.519531 68.355469 C 83.199219 68.429688 82.882812 68.507812 82.554688 68.585938 C 81.703125 68.695312 81.703125 68.695312 80.476562 68.257812 C 80.070312 67.386719 79.667969 66.511719 79.25 65.613281 C 81.136719 63.726562 83.027344 61.835938 84.96875 59.890625 Z M 84.96875 59.890625 "/>
<path style=" stroke:none;fill-rule:nonzero;fill:rgb(12.156863%,24.313726%,35.294119%);fill-opacity:1;" d="M 102.945312 56.367188 C 104.097656 57.546875 105.027344 58.738281 105.90625 60.164062 C 106.117188 60.507812 106.332031 60.847656 106.550781 61.199219 C 107.03125 62.089844 107.03125 62.089844 107.03125 62.972656 C 100.929688 64.632812 100.929688 64.632812 98.859375 64.292969 C 98.066406 63.414062 98.066406 63.414062 97.632812 62.53125 C 98.273438 60.753906 99.449219 59.683594 100.75 58.457031 C 100.960938 58.257812 101.171875 58.054688 101.386719 57.847656 C 101.90625 57.351562 102.425781 56.859375 102.945312 56.367188 Z M 102.945312 56.367188 "/>
<path style=" stroke:none;fill-rule:nonzero;fill:rgb(15.294118%,26.274511%,35.686275%);fill-opacity:1;" d="M 40.367188 74.808594 C 40.792969 74.804688 40.792969 74.804688 41.230469 74.800781 C 42.917969 74.804688 44.507812 74.949219 46.160156 75.304688 C 45.917969 76.136719 45.917969 76.136719 45.34375 77.0625 C 44.175781 77.507812 44.175781 77.507812 42.703125 77.8125 C 42.175781 77.929688 41.644531 78.042969 41.101562 78.160156 C 40.542969 78.269531 39.980469 78.382812 39.421875 78.496094 C 38.859375 78.613281 38.300781 78.734375 37.742188 78.851562 C 33.691406 79.707031 33.691406 79.707031 32.679688 79.707031 C 33.269531 77.488281 34.273438 76.628906 35.949219 75.304688 C 37.441406 74.765625 38.8125 74.796875 40.367188 74.808594 Z M 40.367188 74.808594 "/>
<path style=" stroke:none;fill-rule:nonzero;fill:rgb(13.333334%,25.098041%,35.294119%);fill-opacity:1;" d="M 121.734375 53.726562 C 122.351562 54.65625 122.351562 54.65625 123.011719 55.871094 C 123.234375 56.269531 123.453125 56.667969 123.679688 57.078125 C 124.1875 58.128906 124.1875 58.128906 124.1875 59.007812 C 123.132812 59.316406 122.078125 59.617188 121.019531 59.917969 C 120.722656 60.003906 120.425781 60.09375 120.117188 60.183594 C 118.585938 60.609375 117.527344 60.839844 116.015625 60.332031 C 115.882812 59.75 115.746094 59.167969 115.609375 58.570312 C 120.695312 53.726562 120.695312 53.726562 121.734375 53.726562 Z M 121.734375 53.726562 "/>
<path style=" stroke:none;fill-rule:nonzero;fill:rgb(92.941177%,71.764708%,21.568628%);fill-opacity:1;" d="M 106.621094 27.742188 C 108.105469 28.277344 108.25 28.683594 109.042969 30.09375 C 109.265625 30.492188 109.492188 30.886719 109.722656 31.292969 C 109.953125 31.710938 110.1875 32.128906 110.425781 32.558594 C 110.652344 32.960938 110.878906 33.363281 111.113281 33.777344 C 111.800781 34.992188 112.480469 36.210938 113.15625 37.429688 C 113.394531 37.855469 113.628906 38.28125 113.875 38.71875 C 114.453125 39.757812 115.03125 40.796875 115.609375 41.835938 C 115.976562 41.726562 115.976562 41.726562 116.347656 41.613281 C 117.242188 41.394531 117.242188 41.394531 118.46875 41.394531 C 117.929688 41.976562 117.390625 42.558594 116.835938 43.15625 C 117.394531 44.785156 118.085938 46.21875 118.925781 47.695312 C 119.148438 48.085938 119.367188 48.476562 119.59375 48.875 C 119.761719 49.167969 119.929688 49.460938 120.101562 49.761719 C 119.699219 49.761719 119.292969 49.761719 118.875 49.761719 C 118.160156 48.703125 118.160156 48.703125 117.421875 47.339844 C 116.972656 46.519531 116.511719 45.707031 116.015625 44.917969 C 114.886719 44.917969 114.425781 45.496094 113.566406 46.238281 C 113.691406 45.984375 113.820312 45.730469 113.949219 45.46875 C 114.367188 44.511719 114.644531 43.757812 114.792969 42.714844 C 114.519531 41.882812 114.519531 41.882812 114.027344 41.097656 C 113.777344 40.660156 113.777344 40.660156 113.519531 40.210938 C 113.339844 39.914062 113.164062 39.613281 112.980469 39.304688 C 112.800781 38.996094 112.625 38.6875 112.441406 38.371094 C 112.003906 37.613281 111.558594 36.863281 111.113281 36.109375 C 109.734375 36.4375 109.003906 36.871094 107.949219 37.898438 C 107.699219 38.140625 107.449219 38.382812 107.1875 38.628906 C 106.90625 38.910156 106.90625 38.910156 106.621094 39.191406 C 107.285156 37.695312 108.042969 36.476562 109.074219 35.230469 C 109.34375 35.230469 109.613281 35.230469 109.890625 35.230469 C 109.113281 33.109375 108.195312 31.269531 107.023438 29.371094 C 106.621094 28.625 106.621094 28.625 106.621094 27.742188 Z M 106.621094 27.742188 "/>
<path style=" stroke:none;fill-rule:nonzero;fill:rgb(95.294118%,95.294118%,96.078432%);fill-opacity:1;" d="M 96.816406 115.816406 C 96.816406 116.105469 96.816406 116.398438 96.816406 116.695312 C 96.09375 116.917969 95.371094 117.140625 94.648438 117.359375 C 94.042969 117.542969 94.042969 117.542969 93.425781 117.730469 C 92.324219 118.019531 92.324219 118.019531 91.097656 118.019531 C 91.097656 118.453125 91.097656 118.890625 91.097656 119.339844 C 93.320312 118.902344 93.320312 118.902344 95.589844 118.457031 C 95.589844 118.75 95.589844 119.039062 95.589844 119.339844 C 94.03125 119.964844 92.765625 120.324219 91.097656 120.21875 C 91.097656 121.238281 91.097656 122.253906 91.097656 123.304688 C 89.882812 123.449219 88.671875 123.59375 87.421875 123.742188 C 87.554688 121.855469 87.691406 119.964844 87.828125 118.019531 C 90.007812 117.429688 92.1875 116.84375 94.367188 116.257812 C 94.792969 116.132812 94.792969 116.132812 95.230469 116.011719 C 96 115.816406 96 115.816406 96.816406 115.816406 Z M 96.816406 115.816406 "/>
<path style=" stroke:none;fill-rule:nonzero;fill:rgb(96.470588%,74.117649%,20%);fill-opacity:1;" d="M 138.253906 132.414062 C 139.710938 132.550781 139.710938 132.550781 140.527344 133.019531 C 141.195312 134.414062 140.875 135.480469 140.527344 136.953125 C 139.300781 137.835938 139.300781 137.835938 137.847656 137.78125 C 136.441406 137.394531 136.441406 137.394531 135.828125 136.625 C 135.578125 135.402344 135.683594 134.621094 136.035156 133.429688 C 136.851562 132.550781 136.851562 132.550781 138.253906 132.414062 Z M 138.253906 132.414062 "/>
<path style=" stroke:none;fill-rule:nonzero;fill:rgb(92.941177%,71.764708%,21.568628%);fill-opacity:1;" d="M 123.371094 26.863281 C 124.710938 27.328125 125.238281 28.015625 125.921875 29.285156 C 126.636719 30.824219 126.636719 30.824219 126.636719 31.707031 C 127.292969 31.148438 127.949219 30.589844 128.605469 30.027344 C 128.96875 29.714844 129.335938 29.402344 129.710938 29.082031 C 130.699219 28.238281 130.699219 28.238281 131.417969 27.40625 C 131.949219 26.863281 131.949219 26.863281 132.765625 26.863281 C 132.132812 28.574219 131.128906 29.519531 129.855469 30.714844 C 129.484375 31.066406 129.113281 31.417969 128.730469 31.78125 C 128.441406 32.046875 128.15625 32.3125 127.863281 32.585938 C 128.671875 34.1875 129.480469 35.785156 130.316406 37.429688 C 129.910156 37.429688 129.507812 37.429688 129.089844 37.429688 C 128.523438 36.660156 128.523438 36.660156 127.992188 35.667969 C 127.8125 35.34375 127.632812 35.015625 127.449219 34.679688 C 127.316406 34.425781 127.183594 34.171875 127.046875 33.910156 C 125.300781 35.117188 123.722656 36.414062 122.144531 37.871094 C 122.992188 35.816406 124.082031 34.277344 125.820312 33.027344 C 125.65625 31.0625 124.898438 29.933594 123.800781 28.425781 C 123.371094 27.742188 123.371094 27.742188 123.371094 26.863281 Z M 123.371094 26.863281 "/>
<path style=" stroke:none;fill-rule:nonzero;fill:rgb(97.647059%,97.647059%,98.039216%);fill-opacity:1;" d="M 135.878906 106.542969 C 136.382812 106.546875 136.382812 106.546875 136.890625 106.554688 C 137.277344 106.5625 137.277344 106.5625 137.667969 106.570312 C 137.921875 110.203125 137.921875 110.203125 137.003906 111.386719 C 134.980469 112.363281 133.367188 112.847656 131.132812 112.734375 C 132.179688 111.605469 132.960938 111.613281 134.398438 111.414062 C 134.398438 110.105469 134.398438 108.796875 134.398438 107.449219 C 133.996094 107.304688 133.589844 107.160156 133.175781 107.007812 C 134.15625 106.480469 134.789062 106.523438 135.878906 106.542969 Z M 135.878906 106.542969 "/>
<path style=" stroke:none;fill-rule:nonzero;fill:rgb(98.039216%,98.039216%,98.431373%);fill-opacity:1;" d="M 104.578125 114.496094 C 104.175781 114.714844 104.175781 114.714844 103.761719 114.9375 C 102.8125 115.957031 102.816406 116.214844 102.792969 117.605469 C 102.773438 119.339844 102.773438 119.339844 103.761719 120.21875 C 103.089844 120.304688 102.417969 120.386719 101.746094 120.46875 C 101.183594 120.535156 101.183594 120.535156 100.609375 120.605469 C 100.300781 120.625 99.992188 120.640625 99.675781 120.660156 C 99.269531 120.21875 99.269531 120.21875 99.226562 119.308594 C 99.234375 118.949219 99.238281 118.585938 99.242188 118.210938 C 99.246094 117.847656 99.25 117.484375 99.253906 117.109375 C 99.257812 116.828125 99.261719 116.546875 99.269531 116.257812 C 101.152344 114.957031 102.277344 114.253906 104.578125 114.496094 Z M 104.578125 114.496094 "/>
<path style=" stroke:none;fill-rule:nonzero;fill:rgb(98.039216%,98.039216%,98.431373%);fill-opacity:1;" d="M 118.46875 110.972656 C 118.0625 111.191406 118.0625 111.191406 117.652344 111.414062 C 116.703125 112.4375 116.703125 112.691406 116.679688 114.082031 C 116.660156 115.816406 116.660156 115.816406 117.652344 116.695312 C 116.980469 116.78125 116.304688 116.863281 115.632812 116.945312 C 115.074219 117.015625 115.074219 117.015625 114.5 117.085938 C 114.191406 117.101562 113.882812 117.121094 113.566406 117.136719 C 113.15625 116.695312 113.15625 116.695312 113.117188 115.789062 C 113.121094 115.425781 113.128906 115.0625 113.132812 114.6875 C 113.136719 114.324219 113.140625 113.960938 113.144531 113.585938 C 113.148438 113.304688 113.152344 113.023438 113.15625 112.734375 C 115.039062 111.433594 116.167969 110.730469 118.46875 110.972656 Z M 118.46875 110.972656 "/>
<path style=" stroke:none;fill-rule:nonzero;fill:rgb(96.862745%,74.117649%,20%);fill-opacity:1;" d="M 111.523438 150.605469 C 112.085938 151.820312 112.011719 152.785156 111.933594 154.128906 C 111.113281 155.007812 111.113281 155.007812 109.683594 155.121094 C 108.253906 155.007812 108.253906 155.007812 107.4375 154.128906 C 107.304688 152.765625 107.253906 151.851562 107.871094 150.632812 C 109.144531 149.878906 110.15625 150.25 111.523438 150.605469 Z M 111.523438 150.605469 "/>
<path style=" stroke:none;fill-rule:nonzero;fill:rgb(94.509804%,72.549021%,20.784314%);fill-opacity:1;" d="M 104.578125 125.503906 C 104.886719 126.496094 104.886719 126.496094 104.988281 127.707031 C 104.324219 128.726562 104.324219 128.726562 103.351562 129.46875 C 102.140625 129.691406 101.585938 129.65625 100.542969 128.945312 C 100.085938 128.148438 100.085938 128.148438 100.210938 126.964844 C 100.304688 126.628906 100.398438 126.292969 100.492188 125.945312 C 101.886719 125.601562 103.152344 125.460938 104.578125 125.503906 Z M 104.578125 125.503906 "/>
<path style=" stroke:none;fill-rule:nonzero;fill:rgb(11.764706%,25.098041%,37.64706%);fill-opacity:1;" d="M 104.835938 114.878906 C 105.515625 114.90625 105.515625 114.90625 106.210938 114.9375 C 106.210938 116.097656 106.210938 117.261719 106.210938 118.457031 C 104.933594 119.277344 104.015625 119.429688 102.535156 119.339844 C 102.457031 116.671875 102.457031 116.671875 102.535156 115.816406 C 103.351562 114.9375 103.351562 114.9375 104.835938 114.878906 Z M 104.835938 114.878906 "/>
<path style=" stroke:none;fill-rule:nonzero;fill:rgb(11.764706%,25.098041%,37.64706%);fill-opacity:1;" d="M 118.722656 111.359375 C 119.40625 111.386719 119.40625 111.386719 120.101562 111.414062 C 120.101562 112.574219 120.101562 113.738281 120.101562 114.9375 C 118.820312 115.753906 117.90625 115.90625 116.425781 115.816406 C 116.347656 113.148438 116.347656 113.148438 116.425781 112.292969 C 117.242188 111.414062 117.242188 111.414062 118.722656 111.359375 Z M 118.722656 111.359375 "/>
<path style=" stroke:none;fill-rule:nonzero;fill:rgb(11.764706%,25.098041%,37.64706%);fill-opacity:1;" d="M 134.398438 107.890625 C 134.398438 109.050781 134.398438 110.214844 134.398438 111.414062 C 133.1875 111.703125 131.972656 111.992188 130.722656 112.292969 C 130.722656 110.984375 130.722656 109.679688 130.722656 108.332031 C 132.027344 107.859375 133.035156 107.855469 134.398438 107.890625 Z M 134.398438 107.890625 "/>
<path style=" stroke:none;fill-rule:nonzero;fill:rgb(20%,28.235295%,35.294119%);fill-opacity:1;" d="M 137.667969 52.84375 C 138.074219 52.988281 138.476562 53.132812 138.894531 53.285156 C 139.378906 54.414062 139.378906 54.414062 139.710938 55.484375 C 138.988281 55.71875 138.265625 55.949219 137.539062 56.175781 C 137.136719 56.300781 136.734375 56.429688 136.320312 56.5625 C 135.21875 56.808594 135.21875 56.808594 133.992188 56.367188 C 134.449219 55.859375 134.910156 55.355469 135.371094 54.851562 C 135.625 54.570312 135.882812 54.292969 136.144531 54 C 136.851562 53.285156 136.851562 53.285156 137.667969 52.84375 Z M 137.667969 52.84375 "/>
<path style=" stroke:none;fill-rule:nonzero;fill:rgb(96.862745%,74.117649%,19.607843%);fill-opacity:1;" d="M 71.488281 122.863281 C 71.898438 123.304688 71.898438 123.304688 71.949219 124.402344 C 71.898438 125.503906 71.898438 125.503906 71.488281 125.945312 C 70.265625 126 70.265625 126 69.039062 125.945312 C 68.628906 125.503906 68.628906 125.503906 68.605469 124.15625 C 68.613281 123.730469 68.621094 123.300781 68.628906 122.863281 C 69.726562 122.273438 70.328125 122.539062 71.488281 122.863281 Z M 71.488281 122.863281 "/>
<path style=" stroke:none;fill-rule:nonzero;fill:rgb(92.54902%,71.372551%,21.960784%);fill-opacity:1;" d="M 139.300781 34.347656 C 139.570312 34.347656 139.839844 34.347656 140.121094 34.347656 C 139.570312 35.6875 138.972656 36.550781 137.972656 37.535156 C 137.589844 37.914062 137.589844 37.914062 137.199219 38.300781 C 136.929688 38.558594 136.664062 38.816406 136.390625 39.082031 C 136.121094 39.347656 135.851562 39.613281 135.574219 39.886719 C 134.914062 40.539062 134.25 41.1875 133.582031 41.835938 C 133.582031 40.039062 134.097656 39.640625 135.21875 38.3125 C 136.046875 37.492188 136.890625 36.699219 137.746094 35.914062 C 138.515625 35.21875 138.515625 35.21875 139.300781 34.347656 Z M 139.300781 34.347656 "/>
<path style=" stroke:none;fill-rule:nonzero;fill:rgb(21.960784%,29.019609%,35.686275%);fill-opacity:1;" d="M 78.433594 66.496094 C 78.996094 67.0625 79.539062 67.652344 80.066406 68.257812 C 80.066406 68.546875 80.066406 68.839844 80.066406 69.136719 C 78.449219 69.429688 76.832031 69.71875 75.164062 70.019531 C 76.152344 68.613281 77.078125 67.488281 78.433594 66.496094 Z M 78.433594 66.496094 "/>
<path style=" stroke:none;fill-rule:nonzero;fill:rgb(91.764706%,70.588237%,22.352941%);fill-opacity:1;" d="M 86.605469 44.035156 C 86.875 44.035156 87.144531 44.035156 87.421875 44.035156 C 87.890625 44.683594 87.890625 44.683594 88.394531 45.578125 C 88.667969 46.054688 88.667969 46.054688 88.945312 46.542969 C 89.226562 47.046875 89.226562 47.046875 89.515625 47.558594 C 89.800781 48.0625 89.800781 48.0625 90.09375 48.578125 C 90.566406 49.410156 91.039062 50.246094 91.507812 51.082031 C 91.101562 51.226562 90.699219 51.375 90.28125 51.523438 C 89.664062 50.441406 89.054688 49.359375 88.441406 48.273438 C 88.265625 47.96875 88.09375 47.660156 87.910156 47.34375 C 86.605469 45.015625 86.605469 45.015625 86.605469 44.035156 Z M 86.605469 44.035156 "/>
<path style=" stroke:none;fill-rule:nonzero;fill:rgb(24.313726%,30.19608%,35.294119%);fill-opacity:1;" d="M 96.410156 62.53125 C 96.679688 62.53125 96.949219 62.53125 97.226562 62.53125 C 98.042969 63.851562 98.042969 63.851562 98.042969 65.175781 C 96.695312 65.320312 95.347656 65.464844 93.957031 65.613281 C 94.480469 64.863281 95.027344 64.128906 95.589844 63.414062 C 95.859375 63.414062 96.128906 63.414062 96.410156 63.414062 C 96.410156 63.121094 96.410156 62.832031 96.410156 62.53125 Z M 96.410156 62.53125 "/>
<path style=" stroke:none;fill-rule:nonzero;fill:rgb(84.705883%,85.09804%,88.235295%);fill-opacity:1;" d="M 96.816406 115.816406 C 96.816406 116.105469 96.816406 116.398438 96.816406 116.695312 C 96.105469 116.933594 95.386719 117.160156 94.671875 117.386719 C 94.273438 117.511719 93.875 117.640625 93.464844 117.773438 C 92.339844 118.015625 91.753906 117.992188 90.6875 117.578125 C 91.902344 116.707031 92.582031 116.480469 93.984375 116.203125 C 94.339844 116.128906 94.699219 116.054688 95.070312 115.976562 C 96 115.816406 96 115.816406 96.816406 115.816406 Z M 96.816406 115.816406 "/>
<path style=" stroke:none;fill-rule:nonzero;fill:rgb(91.37255%,70.588237%,22.352941%);fill-opacity:1;" d="M 146.65625 43.597656 C 146.070312 45.089844 145.347656 45.9375 144.203125 46.980469 C 143.917969 47.246094 143.632812 47.511719 143.335938 47.785156 C 142.570312 48.441406 142.570312 48.441406 141.753906 48.878906 C 142.390625 47.191406 143.398438 46.160156 144.613281 44.917969 C 144.839844 44.652344 145.066406 44.390625 145.300781 44.121094 C 145.839844 43.597656 145.839844 43.597656 146.65625 43.597656 Z M 146.65625 43.597656 "/>
<path style=" stroke:none;fill-rule:nonzero;fill:rgb(78.431374%,78.823531%,83.137256%);fill-opacity:1;" d="M 107.03125 114.054688 C 106.894531 115.21875 106.761719 116.378906 106.621094 117.578125 C 106.488281 117.578125 106.351562 117.578125 106.210938 117.578125 C 106.210938 116.707031 106.210938 115.835938 106.210938 114.9375 C 105.269531 114.789062 104.324219 114.644531 103.351562 114.496094 C 103.351562 114.351562 103.351562 114.203125 103.351562 114.054688 C 105.652344 113.558594 105.652344 113.558594 107.03125 114.054688 Z M 107.03125 114.054688 "/>
<path style=" stroke:none;fill-rule:nonzero;fill:rgb(78.431374%,78.823531%,83.137256%);fill-opacity:1;" d="M 120.917969 110.53125 C 120.785156 111.695312 120.648438 112.855469 120.511719 114.054688 C 120.375 114.054688 120.242188 114.054688 120.101562 114.054688 C 120.101562 113.183594 120.101562 112.3125 120.101562 111.414062 C 119.160156 111.265625 118.214844 111.121094 117.242188 110.972656 C 117.242188 110.828125 117.242188 110.683594 117.242188 110.53125 C 119.539062 110.035156 119.539062 110.035156 120.917969 110.53125 Z M 120.917969 110.53125 "/>
<path style=" stroke:none;fill-rule:nonzero;fill:rgb(77.64706%,78.431374%,82.745099%);fill-opacity:1;" d="M 134.398438 107.449219 C 134.398438 107.59375 134.398438 107.738281 134.398438 107.890625 C 132.582031 108.109375 132.582031 108.109375 130.722656 108.332031 C 130.589844 108.039062 130.453125 107.75 130.316406 107.449219 C 131.824219 106.90625 132.851562 107.164062 134.398438 107.449219 Z M 134.398438 107.449219 "/>
</g>
</svg>
