<?xml version="1.0" encoding="UTF-8"?>
<svg version="1.1" xmlns="http://www.w3.org/2000/svg" width="470" height="436">
<path d="M0 0 C155.1 0 310.2 0 470 0 C470 143.88 470 287.76 470 436 C314.9 436 159.8 436 0 436 C0 292.12 0 148.24 0 0 Z " fill="#FEFEFE" transform="translate(0,0)"/>
<path d="M0 0 C4.65065398 2.68046784 8.36301387 6.47805178 12.1484375 10.23828125 C12.78910156 10.85316406 13.42976563 11.46804687 14.08984375 12.1015625 C17.69371538 15.6086859 20.98630611 19.32800308 24.265625 23.13671875 C26.31566024 25.42493236 28.46138842 27.58088707 30.6484375 29.73828125 C33.41404158 32.46657532 36.06130781 35.22344959 38.5859375 38.17578125 C41.30462998 41.34864045 44.17595425 44.30166507 47.1484375 47.23828125 C50.73402449 50.78060324 54.09735412 54.41383786 57.37109375 58.2421875 C60.09576843 61.30220676 63.03721822 64.13534969 65.953125 67.01171875 C68.58911766 69.68523443 71.02969977 72.48870077 73.4609375 75.34765625 C75.14029234 77.22915566 76.92071905 78.9043082 78.7734375 80.61328125 C82.73181711 84.49124231 85.19062453 89.07759452 87.1484375 94.23828125 C87.1484375 95.22828125 87.1484375 96.21828125 87.1484375 97.23828125 C91.52742132 96.40587161 95.90564539 95.56960536 100.28320312 94.72973633 C101.77290831 94.4444909 103.26281689 94.16030564 104.75292969 93.87719727 C106.89312056 93.47039001 109.03255413 93.05979215 111.171875 92.6484375 C112.46013184 92.40230713 113.74838867 92.15617676 115.07568359 91.90258789 C118.0440585 91.39385115 118.0440585 91.39385115 120.1484375 90.23828125 C115.68697476 87.10806142 110.20552 88.30516153 105.0546875 88.75585938 C101.62955338 88.89665767 99.10458821 88.89899838 96.21846008 86.90463257 C95.59763046 86.32814972 94.97680084 85.75166687 94.3371582 85.15771484 C93.64516327 84.52124527 92.95316833 83.8847757 92.24020386 83.22901917 C91.54992096 82.57207565 90.85963806 81.91513214 90.1484375 81.23828125 C89.51898224 80.64454208 88.88952698 80.05080292 88.24099731 79.43907166 C84.19155367 75.5736695 80.22056238 71.62681178 76.24536133 67.68530273 C74.79490016 66.2515682 73.33907344 64.82324332 71.87817383 63.40014648 C69.75694302 61.33333655 67.65232402 59.25086491 65.55078125 57.1640625 C64.89262924 56.52857986 64.23447723 55.89309723 63.55638123 55.23835754 C62.96148392 54.6406102 62.36658661 54.04286285 61.75366211 53.42700195 C60.96045815 52.64592827 60.96045815 52.64592827 60.15122986 51.84907532 C59.1484375 50.23828125 59.1484375 50.23828125 59.48561096 48.03898621 C59.70434372 47.44475357 59.92307648 46.85052094 60.1484375 46.23828125 C64.05565371 46.85113453 67.13214778 48.04859502 70.65625 49.828125 C71.71610107 50.36026611 72.77595215 50.89240723 73.86791992 51.44067383 C74.99174072 52.01325928 76.11556152 52.58584473 77.2734375 53.17578125 C78.43399658 53.76190186 79.59455566 54.34802246 80.7902832 54.9519043 C89.91542926 59.57454843 98.98945309 64.28948986 108.01416016 69.10498047 C110.16135959 70.24514288 112.31582762 71.37036192 114.47265625 72.4921875 C115.82293907 73.19917595 117.17320063 73.90620504 118.5234375 74.61328125 C119.68617188 75.21914062 120.84890625 75.825 122.046875 76.44921875 C127.05176048 79.3361678 130.53916905 82.15517138 133.4609375 87.17578125 C133.97269531 88.00980469 134.48445313 88.84382813 135.01171875 89.703125 C138.19398646 99.59986822 135.69653501 110.70635798 133.8828125 120.68359375 C133.64508509 122.02859576 133.40805995 123.37372206 133.17169189 124.71896362 C132.67778073 127.51531264 132.17608643 130.31011361 131.66845703 133.10400391 C131.02427944 136.65253129 130.39908896 140.20409042 129.77962875 143.75700569 C129.2944787 146.52786093 128.79963103 149.29691883 128.30194855 152.06554794 C127.95574082 154.00031549 127.61712533 155.93643681 127.27874756 157.87258911 C124.54764915 172.7558123 120.04387347 186.23194501 107.1484375 195.23828125 C103.6484375 196.67578125 103.6484375 196.67578125 101.1484375 197.23828125 C101.18324219 198.33140625 101.21804688 199.42453125 101.25390625 200.55078125 C101.22634728 225.64046405 91.03577605 253.95464637 78.1484375 275.23828125 C69.70266449 269.06730097 61.59679753 262.50223144 53.8359375 255.48828125 C53.02253906 254.75351562 52.20914062 254.01875 51.37109375 253.26171875 C50.01518505 252.02734141 48.66677029 250.78458181 47.33203125 249.52734375 C45.66066385 247.95588566 45.66066385 247.95588566 43.1484375 246.23828125 C41.18087298 246.26951068 41.18087298 246.26951068 39.1484375 247.23828125 C37.73575115 247.45372955 36.31825654 247.63887206 34.8984375 247.80078125 C33.0421875 248.01734375 33.0421875 248.01734375 31.1484375 248.23828125 C38.29429303 255.46209157 45.73524487 262.36185357 53.6484375 268.73828125 C55.48523565 270.23403647 57.31837452 271.73429302 59.1484375 273.23828125 C59.97118164 273.91189697 59.97118164 273.91189697 60.81054688 274.59912109 C62.52574908 276.02021942 64.21372828 277.46873544 65.8984375 278.92578125 C66.43662109 279.36535156 66.97480469 279.80492187 67.52929688 280.2578125 C69.0078125 281.5625 69.0078125 281.5625 71.1484375 284.23828125 C71.36871989 298.09771502 53.87571727 314.9484615 44.90625 324.41796875 C25.02582328 344.74894338 -0.09159221 357.58419961 -27.8515625 363.23828125 C-28.58407227 363.3878125 -29.31658203 363.53734375 -30.07128906 363.69140625 C-40.10246997 365.67794827 -49.60140858 366.68322362 -59.8515625 366.23828125 C-60.81291339 362.01223433 -61.19891216 357.79770611 -61.51586914 353.4855957 C-61.57453659 352.72064285 -61.63320404 351.95569 -61.69364929 351.16755676 C-61.88616166 348.64578681 -62.07411434 346.12370198 -62.26171875 343.6015625 C-62.39464755 341.83903287 -62.52774236 340.07651576 -62.66099548 338.31401062 C-62.93955123 334.61972934 -63.21579755 330.92528422 -63.49047852 327.23071289 C-63.8411064 322.51766185 -64.19787593 317.80509959 -64.5564661 313.09264851 C-64.83280702 309.45093963 -65.10561215 305.8089722 -65.37740898 302.16692162 C-65.50744298 300.43067123 -65.63860325 298.69450479 -65.77095222 296.95842934 C-66.4235259 288.37572977 -67.0299187 279.85337655 -66.8515625 271.23828125 C-70.1515625 271.56828125 -73.4515625 271.89828125 -76.8515625 272.23828125 C-76.80367081 272.97949219 -76.75577911 273.72070312 -76.70643616 274.484375 C-76.25038042 281.54313093 -75.79448788 288.60189737 -75.33876896 295.66067505 C-75.10459496 299.28778638 -74.87036253 302.91489392 -74.63598633 306.54199219 C-74.4089004 310.05630566 -74.1819813 313.57062987 -73.95516777 317.08496094 C-73.82846347 319.0475332 -73.70159571 321.01009491 -73.57472229 322.97265625 C-73.3324484 326.72778724 -73.0919339 330.48302804 -72.8515625 334.23828125 C-72.80607206 334.94033188 -72.76058163 335.64238251 -72.71371269 336.3657074 C-72.57364806 338.52823977 -72.43513705 340.69086734 -72.296875 342.85351562 C-72.21397217 344.14076538 -72.13106934 345.42801514 -72.0456543 346.75427246 C-71.80421155 351.08824576 -71.73534094 355.399232 -71.7890625 359.73828125 C-71.79357422 360.47691406 -71.79808594 361.21554687 -71.80273438 361.9765625 C-71.81412363 363.73050729 -71.83202679 365.48440828 -71.8515625 367.23828125 C-116.5086645 369.22304134 -158.64203968 350.2765698 -191.27880859 320.68212891 C-204.97484334 308.10865025 -218.06489342 292.75883878 -226.8515625 276.23828125 C-226.8515625 275.57828125 -226.8515625 274.91828125 -226.8515625 274.23828125 C-231.75447958 275.20126696 -236.65481601 276.17413138 -241.55078125 277.171875 C-244.67290739 277.80787396 -247.79481134 278.41350325 -250.93359375 278.9609375 C-252.06152344 279.17621094 -253.18945312 279.39148438 -254.3515625 279.61328125 C-255.33125 279.78601563 -256.3109375 279.95875 -257.3203125 280.13671875 C-260.83512029 281.66631103 -261.98807525 283.97717857 -263.8515625 287.23828125 C-262.87316406 287.02171875 -261.89476562 286.80515625 -260.88671875 286.58203125 C-243.09721517 282.75069044 -243.09721517 282.75069044 -236.8515625 285.61328125 C-229.76901506 291.81051026 -223.94639978 299.24039772 -218.07421875 306.5625 C-215.27821963 309.92850948 -212.26904723 313.06280813 -209.1875 316.16796875 C-207.8515625 318.23828125 -207.8515625 318.23828125 -208.140625 320.99609375 C-208.37523437 321.73601562 -208.60984375 322.4759375 -208.8515625 323.23828125 C-214.53150475 323.75784968 -218.28229453 322.01578612 -223.265625 319.6171875 C-224.47150772 319.05399055 -224.47150772 319.05399055 -225.70175171 318.47941589 C-228.29854223 317.26390991 -230.88755245 316.03276077 -233.4765625 314.80078125 C-236.13467573 313.54912292 -238.79432182 312.30076319 -241.45404053 311.05252075 C-243.19677225 310.23417499 -244.93884395 309.41442213 -246.68023682 308.5932312 C-251.3034249 306.41624862 -255.93876526 304.28778196 -260.625 302.25 C-261.53813965 301.85288818 -262.4512793 301.45577637 -263.39208984 301.04663086 C-264.95864711 300.37251673 -266.52895312 299.70700188 -268.10400391 299.05297852 C-274.3386944 296.35088523 -280.42193051 292.49628872 -283.2265625 286.05078125 C-283.52304687 285.39722656 -283.81953125 284.74367188 -284.125 284.0703125 C-287.66976657 275.13216455 -285.42940175 267.71444965 -282.34375 259.0546875 C-281.98064728 258.00030991 -281.61754456 256.94593231 -281.24343872 255.85960388 C-280.08405142 252.50202236 -278.90586849 249.15141189 -277.7265625 245.80078125 C-276.9570417 243.58573476 -276.18880126 241.37024302 -275.421875 239.15429688 C-273.92982724 234.84581786 -272.43119156 230.53971369 -270.92871094 226.23486328 C-268.82544718 220.18939492 -266.78804981 214.12343284 -264.79684448 208.04017639 C-261.00856981 196.52220031 -261.00856981 196.52220031 -258.5 191.5703125 C-254.70467702 184.0611612 -254.36880435 177.27273815 -254.15478516 169.03955078 C-253.82650217 157.41164205 -252.25511446 146.9064428 -243.9609375 138.26953125 C-236.77560752 131.57784989 -230.33260361 130.84615549 -220.72265625 131.0546875 C-212.45817929 131.44664554 -205.25888305 132.98304765 -197.48046875 135.8203125 C-196.83952271 136.05286743 -196.19857666 136.28542236 -195.53820801 136.52502441 C-193.97479076 137.09281091 -192.41300292 137.66508073 -190.8515625 138.23828125 C-191.30595703 137.08303955 -191.76035156 135.92779785 -192.22851562 134.73754883 C-193.91429301 130.44511979 -195.58892797 126.14841605 -197.26025391 121.8503418 C-197.98476469 119.99173661 -198.7122803 118.13429981 -199.44287109 116.27807617 C-200.49330681 113.60768278 -201.53281675 110.93325545 -202.5703125 108.2578125 C-202.89841919 107.43054153 -203.22652588 106.60327057 -203.5645752 105.75093079 C-206.48253823 98.16789638 -206.48253823 98.16789638 -205.8515625 94.23828125 C-202.21734171 90.29255582 -198.85789767 89.5939125 -193.6640625 88.86328125 C-165.75589473 84.31233235 -139.80950727 69.58418795 -120.69140625 48.8125 C-119.75425781 47.96300781 -118.81710938 47.11351562 -117.8515625 46.23828125 C-115.77172852 46.35473633 -115.77172852 46.35473633 -113.8515625 47.23828125 C-112.67362128 49.92398722 -111.74889567 52.46470598 -110.8515625 55.23828125 C-110.01229013 57.25697162 -109.16740695 59.27246697 -108.3046875 61.28125 C-107.66482142 64.04480955 -107.89350243 65.55005363 -108.8515625 68.23828125 C-110.66563584 70.206188 -112.39543702 71.88760822 -114.4140625 73.61328125 C-114.96054443 74.09659912 -115.50702637 74.57991699 -116.07006836 75.07788086 C-117.65469939 76.47567256 -119.25128487 77.85846072 -120.8515625 79.23828125 C-122.20582138 80.42567609 -123.56000341 81.61315859 -124.9140625 82.80078125 C-125.53410156 83.33832031 -126.15414062 83.87585938 -126.79296875 84.4296875 C-129.341129 86.66839375 -131.84566843 88.95238337 -134.3515625 91.23828125 C-137.47063261 94.08352353 -140.59911641 96.91027705 -143.7890625 99.67578125 C-147.19844768 102.63711581 -150.52952626 105.6797843 -153.8515625 108.73828125 C-157.7803784 112.35542164 -161.7444601 115.92166954 -165.78125 119.41796875 C-169.31629393 122.52613945 -172.77245987 125.72130561 -176.23828125 128.90625 C-178.8515625 131.23828125 -178.8515625 131.23828125 -181.5078125 133.28125 C-183.79248449 135.18895111 -185.14539202 136.8273426 -186.6640625 139.36328125 C-187.08300781 140.04648438 -187.50195312 140.7296875 -187.93359375 141.43359375 C-189.00268803 143.19793129 -189.00268803 143.19793129 -188.8515625 145.23828125 C-187.8615625 145.23828125 -186.8715625 145.23828125 -185.8515625 145.23828125 C-184.50414073 143.53632318 -184.50414073 143.53632318 -183.2890625 141.30078125 C-179.65746032 135.57092003 -174.97899446 131.60721735 -169.8515625 127.23828125 C-168.18025829 125.74345015 -166.51354333 124.24347144 -164.8515625 122.73828125 C-164.02914062 121.99835938 -163.20671875 121.2584375 -162.359375 120.49609375 C-160.66563356 118.97119881 -158.97295081 117.44512723 -157.28125 115.91796875 C-153.53591994 112.53915417 -149.78638043 109.1693216 -145.9765625 105.86328125 C-142.0098135 102.41044306 -138.14473581 98.84950744 -134.27612305 95.2878418 C-130.86557444 92.15311073 -127.40997134 89.08101823 -123.91015625 86.046875 C-121.361996 83.80816875 -118.85745657 81.52417913 -116.3515625 79.23828125 C-112.56222124 75.78252712 -108.74072552 72.37305235 -104.87109375 69.0078125 C-100.82491161 65.46251171 -96.84413063 61.84369126 -92.8515625 58.23828125 C-83.359375 49.6665483 -83.359375 49.6665483 -78.9765625 45.86328125 C-75.54824058 42.87911439 -72.19535449 39.81639641 -68.8515625 36.73828125 C-64.89291601 33.09416409 -60.89979562 29.4991447 -56.8359375 25.97265625 C-54.53007215 23.95729362 -52.25217119 21.91274249 -49.9765625 19.86328125 C-49.13480469 19.10660156 -48.29304687 18.34992187 -47.42578125 17.5703125 C-45.71013903 16.01608123 -44.00433548 14.45091974 -42.30859375 12.875 C-30.12755825 1.63823081 -17.09370985 -6.70403862 0 0 Z " fill="#FBC032" transform="translate(303.8515625,17.76171875)"/>
<path d="M0 0 C-0.34719876 14.04576789 -4.75222585 27.6399652 -10.125 40.5 C-10.46152588 41.30695313 -10.79805176 42.11390625 -11.14477539 42.9453125 C-12.73195808 46.59736222 -14.0236253 49.28102445 -17 52 C-18.79275845 50.54300902 -20.58417229 49.08436345 -22.375 47.625 C-23.87160156 46.40683594 -23.87160156 46.40683594 -25.3984375 45.1640625 C-28 43 -28 43 -30 41 C-31.76474965 41.31363375 -31.76474965 41.31363375 -34 42 C-36.66156983 42.38750825 -39.3280489 42.68827237 -42 43 C-34.85414447 50.22381032 -27.41319263 57.12357232 -19.5 63.5 C-17.66320185 64.99575522 -15.83006298 66.49601177 -14 68 C-13.45150391 68.44907715 -12.90300781 68.8981543 -12.33789062 69.36083984 C-10.62268842 70.78193817 -8.93470922 72.23045419 -7.25 73.6875 C-6.71181641 74.12707031 -6.17363281 74.56664062 -5.61914062 75.01953125 C-4.140625 76.32421875 -4.140625 76.32421875 -2 79 C-1.77971761 92.85943377 -19.27272023 109.71018025 -28.2421875 119.1796875 C-48.12261422 139.51066213 -73.24002971 152.34591836 -101 158 C-102.09876465 158.22429687 -102.09876465 158.22429687 -103.21972656 158.453125 C-113.25090747 160.43966702 -122.74984608 161.44494237 -133 161 C-133.96135089 156.77395308 -134.34734966 152.55942486 -134.66430664 148.24731445 C-134.72297409 147.4823616 -134.78164154 146.71740875 -134.84208679 145.92927551 C-135.03459916 143.40750556 -135.22255184 140.88542073 -135.41015625 138.36328125 C-135.54308505 136.60075162 -135.67617986 134.83823451 -135.80943298 133.07572937 C-136.08798873 129.38144809 -136.36423505 125.68700297 -136.63891602 121.99243164 C-136.9895439 117.2793806 -137.34631343 112.56681834 -137.7049036 107.85436726 C-137.98124452 104.21265838 -138.25404965 100.57069095 -138.52584648 96.92864037 C-138.65588048 95.19238998 -138.78704075 93.45622354 -138.91938972 91.72014809 C-139.5719634 83.13744852 -140.1783562 74.6150953 -140 66 C-144.95 66.495 -144.95 66.495 -150 67 C-149.86368164 68.87196045 -149.86368164 68.87196045 -149.72460938 70.78173828 C-149.38122942 75.52647314 -149.04836313 80.27190256 -148.71826172 85.01757812 C-148.57550676 87.04999992 -148.43010692 89.08223811 -148.28173828 91.11425781 C-147.23848126 105.43597669 -146.80941573 119.64088695 -147 134 C-182.76642679 135.451857 -218.81532004 120.62831191 -245.125 96.625 C-246.60403142 95.23498436 -248.0696669 93.83278034 -249.52783203 92.42089844 C-251.0138435 90.98663861 -252.51960083 89.57542224 -254.02734375 88.1640625 C-261.69205541 80.87066026 -268.2320099 72.87907138 -274 64 C-274 63.34 -274 62.68 -274 62 C-265.75477867 59.70109873 -257.48385619 57.61136073 -249.1328125 55.734375 C-248.19026611 55.52128189 -247.24771973 55.30818878 -246.27661133 55.08863831 C-239.89684004 53.64779451 -233.51474246 52.21728894 -227.13278198 50.78617859 C-222.57663106 49.76413044 -218.02094396 48.74002384 -213.46533203 47.71557617 C-211.14109209 47.19371111 -208.81654339 46.6732194 -206.49169922 46.15405273 C-189.77779194 42.42169062 -189.77779194 42.42169062 -173.26269531 37.91430664 C-167.30251029 36.24408119 -161.24438805 35.00971686 -155.18908691 33.73675537 C-151.9726239 33.06019018 -148.7586807 32.37199007 -145.54455566 31.68441772 C-143.870097 31.3262141 -142.19553581 30.96848937 -140.52087402 30.61123657 C-131.75492702 28.73971984 -123.00041208 26.81774 -114.25 24.875 C-113.49620056 24.70780457 -112.74240112 24.54060913 -111.96575928 24.36834717 C-101.62575717 22.07140407 -91.3193092 19.66062276 -81.02880859 17.15014648 C-69.85492482 14.44381302 -58.60781359 12.08685815 -47.35986328 9.71142578 C-42.17433554 8.61342928 -36.9927037 7.49781992 -31.8125 6.375 C-30.88123291 6.17358398 -29.94996582 5.97216797 -28.99047852 5.76464844 C-22.37906447 4.32515659 -15.78989684 2.80226976 -9.22387695 1.16748047 C-5.99922851 0.38229884 -3.35348708 0 0 0 Z " fill="#153A5A" transform="translate(377,223)"/>
<path d="M0 0 C4.65065398 2.68046784 8.36301387 6.47805178 12.1484375 10.23828125 C12.78910156 10.85316406 13.42976562 11.46804687 14.08984375 12.1015625 C17.69371538 15.6086859 20.98630611 19.32800308 24.265625 23.13671875 C26.31566024 25.42493236 28.46138842 27.58088707 30.6484375 29.73828125 C33.41404158 32.46657532 36.06130781 35.22344959 38.5859375 38.17578125 C41.30462998 41.34864045 44.17595425 44.30166507 47.1484375 47.23828125 C50.73402449 50.78060324 54.09735412 54.41383786 57.37109375 58.2421875 C60.09576843 61.30220676 63.03721822 64.13534969 65.953125 67.01171875 C68.58911766 69.68523443 71.02969977 72.48870077 73.4609375 75.34765625 C75.14029234 77.22915566 76.92071905 78.9043082 78.7734375 80.61328125 C82.71921199 84.48780022 85.26382506 89.05342584 87.1484375 94.23828125 C87.1484375 95.55828125 87.1484375 96.87828125 87.1484375 98.23828125 C76.3274069 100.72940951 65.50141691 103.20220386 54.6484375 105.55078125 C53.87910889 105.7219043 53.10978027 105.89302734 52.31713867 106.06933594 C48.22585229 106.94289436 44.34873189 107.70846346 40.1484375 107.23828125 C37.7734375 104.23828125 37.7734375 104.23828125 36.1484375 101.23828125 C37.77519081 96.84393465 41.11701592 94.26954627 44.5234375 91.23828125 C45.67774271 90.1973453 46.83140329 89.15569403 47.984375 88.11328125 C48.52803711 87.6234375 49.07169922 87.13359375 49.63183594 86.62890625 C51.52954837 84.88882737 53.35030985 83.08069776 55.1484375 81.23828125 C48.22779668 86.64227099 41.61282871 92.29654295 35.1484375 98.23828125 C31.72391179 94.9896281 29.36856383 91.25734574 26.8359375 87.30078125 C26.35576172 86.58470703 25.87558594 85.86863281 25.38085938 85.13085938 C24.93677734 84.43541016 24.49269531 83.73996094 24.03515625 83.0234375 C23.62483154 82.3931665 23.21450684 81.76289551 22.79174805 81.11352539 C22.1484375 79.23828125 22.1484375 79.23828125 22.82910156 77.19946289 C24.18831647 75.1790015 25.56037497 73.69825757 27.37109375 72.07421875 C27.99177734 71.50960937 28.61246094 70.945 29.25195312 70.36328125 C29.89841797 69.78578125 30.54488281 69.20828125 31.2109375 68.61328125 C32.49582142 67.45701306 33.77848645 66.29827293 35.05859375 65.13671875 C35.62715088 64.62802246 36.19570801 64.11932617 36.78149414 63.59521484 C38.26936536 62.26285207 38.26936536 62.26285207 39.1484375 60.23828125 C33.45206558 65.20514505 27.79061126 70.2099551 22.1484375 75.23828125 C18.87625362 73.86980286 17.39520524 72.56844882 15.5703125 69.54296875 C15.13203125 68.82753906 14.69375 68.11210938 14.2421875 67.375 C13.79875 66.62863281 13.3553125 65.88226563 12.8984375 65.11328125 C12.43953125 64.35917969 11.980625 63.60507813 11.5078125 62.828125 C10.37900316 60.97029296 9.26250875 59.10498842 8.1484375 57.23828125 C9.07605041 56.12738005 10.00787722 55.01999683 10.94140625 53.9140625 C11.45985107 53.29700439 11.9782959 52.67994629 12.51245117 52.04418945 C14.06853261 50.32648547 15.66124152 48.88128639 17.4609375 47.42578125 C20.17918947 45.51958614 20.17918947 45.51958614 21.1484375 43.23828125 C20.40078125 43.86476562 19.653125 44.49125 18.8828125 45.13671875 C17.89796875 45.95398437 16.913125 46.77125 15.8984375 47.61328125 C14.92390625 48.42539063 13.949375 49.2375 12.9453125 50.07421875 C10.6931693 51.81679882 8.74132364 53.11469725 6.1484375 54.23828125 C5.73851562 53.52800781 5.32859375 52.81773438 4.90625 52.0859375 C4.36742187 51.16683594 3.82859375 50.24773437 3.2734375 49.30078125 C2.73976563 48.38425781 2.20609375 47.46773437 1.65625 46.5234375 C0.35131187 44.13127829 0.35131187 44.13127829 -1.8515625 43.23828125 C-1.33464844 43.9859375 -0.81773437 44.73359375 -0.28515625 45.50390625 C0.37355469 46.48875 1.03226563 47.47359375 1.7109375 48.48828125 C2.37222656 49.4628125 3.03351563 50.43734375 3.71484375 51.44140625 C5.1484375 54.23828125 5.1484375 54.23828125 5.1484375 56.33203125 C3.74943576 58.99887831 1.8787462 60.55069644 -0.4140625 62.48828125 C-1.24035156 63.1946875 -2.06664062 63.90109375 -2.91796875 64.62890625 C-3.55605469 65.16 -4.19414062 65.69109375 -4.8515625 66.23828125 C-8.26411629 65.10076332 -8.54667089 64.58531026 -10.33203125 61.640625 C-10.77353516 60.92197266 -11.21503906 60.20332031 -11.66992188 59.46289062 C-12.12173828 58.70814453 -12.57355469 57.95339844 -13.0390625 57.17578125 C-13.50248047 56.41716797 -13.96589844 55.65855469 -14.44335938 54.87695312 C-15.58722956 53.00194942 -16.72284505 51.12243203 -17.8515625 49.23828125 C-15.03953145 45.6631563 -12.11486553 42.41093697 -8.8515625 39.23828125 C-9.8003125 40.06328125 -10.7490625 40.88828125 -11.7265625 41.73828125 C-14.6015625 44.23828125 -14.6015625 44.23828125 -16.8515625 44.23828125 C-16.8515625 44.89828125 -16.8515625 45.55828125 -16.8515625 46.23828125 C-17.8415625 46.23828125 -18.8315625 46.23828125 -19.8515625 46.23828125 C-21.23828125 44.55859375 -21.23828125 44.55859375 -22.5390625 42.36328125 C-22.97605469 41.64398438 -23.41304687 40.9246875 -23.86328125 40.18359375 C-24.8515625 38.23828125 -24.8515625 38.23828125 -24.8515625 36.23828125 C-25.5115625 36.23828125 -26.1715625 36.23828125 -26.8515625 36.23828125 C-26.18447266 37.25148438 -26.18447266 37.25148438 -25.50390625 38.28515625 C-24.93800781 39.1771875 -24.37210938 40.06921875 -23.7890625 40.98828125 C-22.93634766 42.31085937 -22.93634766 42.31085937 -22.06640625 43.66015625 C-20.8515625 46.23828125 -20.8515625 46.23828125 -20.8515625 48.26953125 C-22.3264456 51.17320735 -24.45752483 52.87379313 -26.9140625 54.98828125 C-28.29271484 56.18710938 -28.29271484 56.18710938 -29.69921875 57.41015625 C-30.76462891 58.31507812 -30.76462891 58.31507812 -31.8515625 59.23828125 C-34.83073861 55.61256053 -37.32363527 51.9416484 -39.703125 47.91015625 C-40.76020964 46.08227713 -40.76020964 46.08227713 -42.8515625 45.23828125 C-42.2740625 46.1303125 -41.6965625 47.02234375 -41.1015625 47.94140625 C-40.35109108 49.12339873 -39.601117 50.30570709 -38.8515625 51.48828125 C-38.47 52.07480469 -38.0884375 52.66132812 -37.6953125 53.265625 C-35.57408639 56.63685935 -34.8515625 58.14408843 -34.8515625 62.23828125 C-36.49609375 64.0546875 -36.49609375 64.0546875 -38.6640625 65.80078125 C-41.68022888 68.23674927 -41.68022888 68.23674927 -44.36328125 71.015625 C-45.8515625 72.23828125 -45.8515625 72.23828125 -47.8046875 72.265625 C-50.80344942 70.76052121 -51.87275013 68.64150072 -53.6015625 65.80078125 C-54.21515625 64.81207031 -54.82875 63.82335937 -55.4609375 62.8046875 C-56.8515625 60.23828125 -56.8515625 60.23828125 -56.8515625 58.23828125 C-57.5115625 58.23828125 -58.1715625 58.23828125 -58.8515625 58.23828125 C-58.17867187 59.2746875 -57.50578125 60.31109375 -56.8125 61.37890625 C-55.94967803 62.7481672 -55.0877447 64.11798839 -54.2265625 65.48828125 C-53.78054687 66.17019531 -53.33453125 66.85210937 -52.875 67.5546875 C-49.73464083 72.60870304 -49.73464083 72.60870304 -50.2578125 75.42578125 C-52.35467057 77.81044337 -54.58221918 79.90090502 -56.9765625 81.98828125 C-57.88664063 82.7875 -58.79671875 83.58671875 -59.734375 84.41015625 C-60.43304688 85.0134375 -61.13171875 85.61671875 -61.8515625 86.23828125 C-65.88597361 84.89347755 -66.97823497 82.28518222 -69.0390625 78.80078125 C-69.40708984 78.20201172 -69.77511719 77.60324219 -70.15429688 76.98632812 C-72.8515625 72.5175745 -72.8515625 72.5175745 -72.8515625 70.23828125 C-73.5115625 70.23828125 -74.1715625 70.23828125 -74.8515625 70.23828125 C-70.95860479 77.68591814 -70.95860479 77.68591814 -66.4140625 84.73828125 C-65.640625 85.97578125 -65.640625 85.97578125 -64.8515625 87.23828125 C-65.97888659 90.62025353 -66.99338623 91.47885939 -69.6640625 93.73828125 C-70.35113281 94.32609375 -71.03820312 94.91390625 -71.74609375 95.51953125 C-77.5265625 100.23828125 -77.5265625 100.23828125 -79.8515625 100.23828125 C-80.99658203 98.80126953 -80.99658203 98.80126953 -82.234375 96.80859375 C-82.67910156 96.09574219 -83.12382812 95.38289063 -83.58203125 94.6484375 C-84.04222656 93.89433594 -84.50242187 93.14023438 -84.9765625 92.36328125 C-85.44449219 91.61691406 -85.91242188 90.87054688 -86.39453125 90.1015625 C-89.8515625 84.50782389 -89.8515625 84.50782389 -89.8515625 82.23828125 C-90.5115625 82.23828125 -91.1715625 82.23828125 -91.8515625 82.23828125 C-90.58408761 84.49023188 -89.31273382 86.73983872 -88.0390625 88.98828125 C-87.68263672 89.6225 -87.32621094 90.25671875 -86.95898438 90.91015625 C-85.43416149 93.59608279 -84.00307508 96.05529817 -82.02734375 98.44140625 C-80.8515625 100.23828125 -80.8515625 100.23828125 -80.82421875 102.16015625 C-82.34774185 105.24195964 -84.74198162 107.26160826 -87.2890625 109.48828125 C-87.79244141 109.9471875 -88.29582031 110.40609375 -88.81445312 110.87890625 C-92.57875279 114.23828125 -92.57875279 114.23828125 -94.8515625 114.23828125 C-96.488238 111.97529672 -97.99721761 109.72561013 -99.4765625 107.36328125 C-99.89679688 106.71230469 -100.31703125 106.06132813 -100.75 105.390625 C-103.8515625 100.50667106 -103.8515625 100.50667106 -103.8515625 98.23828125 C-104.5115625 98.23828125 -105.1715625 98.23828125 -105.8515625 98.23828125 C-105.543396 98.70202148 -105.23522949 99.16576172 -104.91772461 99.64355469 C-103.52834827 101.75012188 -102.15865546 103.86880406 -100.7890625 105.98828125 C-100.30373047 106.71789062 -99.81839844 107.4475 -99.31835938 108.19921875 C-98.86396484 108.90820312 -98.40957031 109.6171875 -97.94140625 110.34765625 C-97.51722412 110.99702148 -97.09304199 111.64638672 -96.65600586 112.31542969 C-95.64304272 114.73670364 -95.90246312 115.82628906 -96.8515625 118.23828125 C-98.5234375 120.01953125 -98.5234375 120.01953125 -100.6015625 121.73828125 C-101.32085937 122.33769531 -102.04015625 122.93710938 -102.78125 123.5546875 C-103.46445313 124.11027344 -104.14765625 124.66585937 -104.8515625 125.23828125 C-105.8003125 126.04265625 -106.7490625 126.84703125 -107.7265625 127.67578125 C-109.8515625 129.23828125 -109.8515625 129.23828125 -111.8515625 129.23828125 C-113.43467933 126.78385945 -114.91193802 124.337372 -116.3515625 121.80078125 C-118.82535495 116.76807912 -118.82535495 116.76807912 -122.8515625 113.23828125 C-122.543396 113.70202148 -122.23522949 114.16576172 -121.91772461 114.64355469 C-120.52834827 116.75012188 -119.15865546 118.86880406 -117.7890625 120.98828125 C-117.30373047 121.71789062 -116.81839844 122.4475 -116.31835938 123.19921875 C-115.86396484 123.90820312 -115.40957031 124.6171875 -114.94140625 125.34765625 C-114.51722412 125.99702148 -114.09304199 126.64638672 -113.65600586 127.31542969 C-112.63892313 129.74655066 -112.89766292 130.81518927 -113.8515625 133.23828125 C-115.71484375 135.4921875 -115.71484375 135.4921875 -118.1640625 137.80078125 C-118.94394531 138.56519531 -119.72382813 139.32960937 -120.52734375 140.1171875 C-125.34668694 143.19227957 -130.30093991 144.07189529 -135.8515625 145.23828125 C-137.02033936 145.49988037 -138.18911621 145.76147949 -139.39331055 146.03100586 C-143.10341919 146.85544693 -146.81973121 147.64408474 -150.5390625 148.42578125 C-152.41948242 148.83473633 -152.41948242 148.83473633 -154.33789062 149.25195312 C-163.89619433 151.25814102 -171.52781373 152.39996504 -180.9140625 149.23828125 C-182.60208984 148.68140625 -182.60208984 148.68140625 -184.32421875 148.11328125 C-185.15824219 147.82453125 -185.99226563 147.53578125 -186.8515625 147.23828125 C-182.47409443 138.387348 -176.21825036 132.54143404 -168.8515625 126.23828125 C-167.49655829 125.05173702 -166.14227119 123.8643728 -164.7890625 122.67578125 C-164.16902344 122.13824219 -163.54898438 121.60070312 -162.91015625 121.046875 C-160.361996 118.80816875 -157.85745657 116.52417913 -155.3515625 114.23828125 C-152.23249239 111.39303897 -149.10400859 108.56628545 -145.9140625 105.80078125 C-142.50467732 102.83944669 -139.17359874 99.7967782 -135.8515625 96.73828125 C-131.9186897 93.1174058 -127.94942308 89.54869261 -123.91015625 86.046875 C-121.361996 83.80816875 -118.85745657 81.52417913 -116.3515625 79.23828125 C-112.56222124 75.78252712 -108.74072552 72.37305235 -104.87109375 69.0078125 C-100.82491161 65.46251171 -96.84413063 61.84369126 -92.8515625 58.23828125 C-83.359375 49.6665483 -83.359375 49.6665483 -78.9765625 45.86328125 C-75.54824058 42.87911439 -72.19535449 39.81639641 -68.8515625 36.73828125 C-64.89291601 33.09416409 -60.89979562 29.4991447 -56.8359375 25.97265625 C-54.53007215 23.95729362 -52.25217119 21.91274249 -49.9765625 19.86328125 C-49.13480469 19.10660156 -48.29304687 18.34992187 -47.42578125 17.5703125 C-45.71013903 16.01608123 -44.00433548 14.45091974 -42.30859375 12.875 C-30.12755825 1.63823081 -17.09370985 -6.70403862 0 0 Z " fill="#163A5A" transform="translate(303.8515625,17.76171875)"/>
<path d="M0 0 C2.07983398 0.11645508 2.07983398 0.11645508 4 1 C5.17794122 3.68570597 6.10266683 6.22642473 7 9 C7.83927237 11.01869037 8.68415555 13.03418572 9.546875 15.04296875 C10.18674108 17.8065283 9.95806007 19.31177238 9 22 C7.18592666 23.96790675 5.45612548 25.64932697 3.4375 27.375 C2.6177771 28.09997681 2.6177771 28.09997681 1.78149414 28.83959961 C0.19686311 30.23739131 -1.39972237 31.62017947 -3 33 C-4.35425888 34.18739484 -5.70844091 35.37487734 -7.0625 36.5625 C-7.68253906 37.10003906 -8.30257812 37.63757813 -8.94140625 38.19140625 C-11.4895665 40.4301125 -13.99410593 42.71410212 -16.5 45 C-19.61907011 47.84524228 -22.74755391 50.6719958 -25.9375 53.4375 C-29.34688518 56.39883456 -32.67796376 59.44150305 -36 62.5 C-39.9288159 66.11714039 -43.8928976 69.68338829 -47.9296875 73.1796875 C-51.46473143 76.2878582 -54.92089737 79.48302436 -58.38671875 82.66796875 C-61 85 -61 85 -63.71484375 86.97265625 C-66.35555453 89.31544068 -66.78499093 90.9510345 -67.875 94.25 C-69.33984375 96.921875 -69.33984375 96.921875 -72 99 C-77.79055164 100.01971979 -83.65961112 99.50164917 -89.49609375 99.15625 C-96.10454747 98.81768496 -101.10083071 99.60425365 -106.1875 104.1875 C-110.39563766 108.10261454 -113.18408627 112.07630915 -114.75 117.6875 C-116.40850863 120.75574097 -118.60946071 121.38815404 -121.703125 122.765625 C-127.21793527 125.72936657 -131.61072697 130.59515389 -136 135 C-136.82450757 104.37107075 -136.82450757 104.37107075 -128 94 C-122.75811743 88.54151071 -118.31697444 85.33282796 -110.5546875 84.734375 C-99.62163736 84.78079984 -89.96808152 85.81069979 -79.62890625 89.58203125 C-78.98796021 89.81458618 -78.34701416 90.04714111 -77.68664551 90.28674316 C-76.12322826 90.85452966 -74.56144042 91.42679948 -73 92 C-73.45439453 90.8447583 -73.90878906 89.6895166 -74.37695312 88.49926758 C-76.06273051 84.20683854 -77.73736547 79.9101348 -79.40869141 75.61206055 C-80.13320219 73.75345536 -80.8607178 71.89601856 -81.59130859 70.03979492 C-82.64174431 67.36940153 -83.68125425 64.6949742 -84.71875 62.01953125 C-85.04685669 61.19226028 -85.37496338 60.36498932 -85.7130127 59.51264954 C-88.63097573 51.92961513 -88.63097573 51.92961513 -88 48 C-84.36577921 44.05427457 -81.00633517 43.35563125 -75.8125 42.625 C-47.90433223 38.0740511 -21.95794477 23.3459067 -2.83984375 2.57421875 C-1.90269531 1.72472656 -0.96554688 0.87523438 0 0 Z " fill="#163B5B" transform="translate(186,64)"/>
<path d="M0 0 C2.60228904 2.03321097 4.05350042 4.41325468 5.83984375 7.1875 C29.05400083 41.97456844 65.70618941 65.39016023 106.34765625 74.25 C116.40792101 76.23449058 126.61186887 76.9370909 136.83984375 77.4375 C137.74223122 80.14466242 137.95835677 81.67526768 137.9375 84.44921875 C137.93427734 85.20654297 137.93105469 85.96386719 137.92773438 86.74414062 C137.91935547 87.52982422 137.91097656 88.31550781 137.90234375 89.125 C137.89783203 89.92228516 137.89332031 90.71957031 137.88867188 91.54101562 C137.87690225 93.50654257 137.85896723 95.47203085 137.83984375 97.4375 C93.18274175 99.42226009 51.04936657 80.47578855 18.41259766 50.88134766 C3.6992287 37.37391766 -8.14126103 21.68614745 -18.16015625 4.4375 C-14.93632883 2.28828172 -12.47174896 1.58966533 -8.72265625 0.6875 C-7.58957031 0.40390625 -6.45648438 0.1203125 -5.2890625 -0.171875 C-2.16015625 -0.5625 -2.16015625 -0.5625 0 0 Z " fill="#173B5B" transform="translate(94.16015625,287.5625)"/>
<path d="M0 0 C2.96071103 1.18251065 3.67075591 3.50268418 4.93847656 6.28125 C6.88008432 11.05141876 8.55770126 15.90334486 10.20605469 20.78125 C10.56957031 21.84214844 10.93308594 22.90304688 11.30761719 23.99609375 C12.19544374 26.58948184 13.07811828 29.1845007 13.95605469 31.78125 C14.725625 31.36617187 15.49519531 30.95109375 16.28808594 30.5234375 C20.50340194 28.26202218 24.72777831 26.01832519 28.95605469 23.78125 C30.03838379 23.20810059 31.12071289 22.63495117 32.23583984 22.04443359 C35.23854738 20.45644141 38.24560055 18.87689372 41.25497437 17.30157471 C42.46873174 16.66492867 43.68132835 16.02606453 44.89273071 15.38494873 C46.62158691 14.47062842 48.35516177 13.5652479 50.08886719 12.66015625 C51.09836426 12.1297876 52.10786133 11.59941895 53.14794922 11.05297852 C55.82444164 9.84085462 58.0353955 9.06790379 60.95605469 8.78125 C64.52692734 11.40689166 66.29940576 14.72246012 67.95605469 18.78125 C68.34861637 21.85795221 68.38829309 23.21934008 66.47167969 25.7109375 C57.34020672 33.55140912 47.69209773 40.71299276 37.95605469 47.78125 C36.94768555 48.51939941 36.94768555 48.51939941 35.91894531 49.27246094 C17.54091302 62.60573305 -12.43947062 79.15464325 -36.04394531 76.78125 C-39.11978906 74.37623992 -40.60451851 71.37981701 -42.04394531 67.78125 C-42.04394531 65.15625 -42.04394531 65.15625 -41.04394531 62.78125 C-37.77099419 59.88752616 -34.42528146 57.77462277 -30.54394531 55.79296875 C-29.497146 55.25438232 -28.45034668 54.7157959 -27.37182617 54.16088867 C-26.27362549 53.60248291 -25.1754248 53.04407715 -24.04394531 52.46875 C-21.79489206 51.31319133 -19.54619078 50.15694733 -17.29785156 49 C-15.68160889 48.17048828 -15.68160889 48.17048828 -14.03271484 47.32421875 C-8.66228405 44.55170424 -3.34687396 41.68046546 1.95605469 38.78125 C1.31990829 30.61737121 -2.06974699 23.2559492 -4.98144531 15.67773438 C-5.38621094 14.59427734 -5.79097656 13.51082031 -6.20800781 12.39453125 C-6.77189209 10.92173706 -6.77189209 10.92173706 -7.34716797 9.41918945 C-8.07750781 6.65418524 -8.16590981 5.38557853 -7.04394531 2.78125 C-3.0755029 -0.32915081 -3.0755029 -0.32915081 0 0 Z " fill="#FCC133" transform="translate(122.0439453125,26.21875)"/>
<path d="M0 0 C2.99220268 1.36370299 5.29026529 2.94908083 7.75 5.125 C8.36359375 5.66382813 8.9771875 6.20265625 9.609375 6.7578125 C10.06828125 7.16773438 10.5271875 7.57765625 11 8 C9.44089 13.5415224 6.82229323 18.1913647 3.9375 23.125 C3.44652832 23.96667725 2.95555664 24.80835449 2.44970703 25.67553711 C-3.91560021 36.42484927 -11.40923824 45.92645163 -20 55 C-20.83144531 55.89589844 -21.66289062 56.79179687 -22.51953125 57.71484375 C-49.55003342 85.93263005 -88.82703692 97.73710028 -127 100 C-130.00337529 100.05376737 -132.99570421 100.03531004 -136 100 C-136.72019001 95.85890746 -137.05897807 91.94992159 -137.03125 87.7421875 C-137.02673828 86.85128418 -137.02222656 85.96038086 -137.01757812 85.04248047 C-137.01177734 84.36846191 -137.00597656 83.69444336 -137 83 C-136.34741211 82.93006836 -135.69482422 82.86013672 -135.02246094 82.78808594 C-95.56980345 78.49044094 -60.57251286 68.97653598 -31 41 C-30.18789063 40.25234375 -29.37578125 39.5046875 -28.5390625 38.734375 C-16.79439567 27.5454495 -8.35180865 13.78682513 0 0 Z " fill="#173B5B" transform="translate(382,309)"/>
<path d="M0 0 C4.12636237 3.63512876 8.10999695 7.75429712 8.92578125 13.390625 C8.95644525 19.07368546 7.76103828 23.06140589 5.625 28.3125 C5.32181523 32.26848294 5.32181523 32.26848294 7.125 35.25 C9.89101458 41.47687341 9.93086496 48.82062667 7.55859375 55.1640625 C3.00679559 63.374663 -2.95439908 67.75400484 -11.75073242 70.56518555 C-16.65462663 71.96167082 -21.63116485 72.98216784 -26.625 74 C-28.21828125 74.33741211 -28.21828125 74.33741211 -29.84375 74.68164062 C-34.5334151 75.6507988 -38.54715008 76.3125 -43.375 76.3125 C-43.375 71.3625 -43.375 66.4125 -43.375 61.3125 C-41.35117187 60.91417969 -39.32734375 60.51585937 -37.2421875 60.10546875 C-35.26615189 59.70887005 -33.29012835 59.31220846 -31.31445312 58.91381836 C-29.94950982 58.64021631 -28.58395308 58.36965516 -27.21777344 58.10229492 C-25.24512692 57.715685 -23.27487288 57.31693129 -21.3046875 56.91796875 C-20.12116699 56.68231201 -18.93764648 56.44665527 -17.71826172 56.20385742 C-14.06741445 55.23049366 -10.11572682 54.05322682 -7.375 51.3125 C-7.20833333 47.8125 -7.20833333 47.8125 -7.375 44.3125 C-8.52920963 42.93870994 -8.52920963 42.93870994 -11.671875 43.09375 C-17.46514073 43.16610122 -22.99611154 44.54565771 -28.625 45.8125 C-30.75441259 46.28485171 -32.88459501 46.75374969 -35.015625 47.21875 C-35.94922852 47.42822266 -36.88283203 47.63769531 -37.84472656 47.85351562 C-40.375 48.3125 -40.375 48.3125 -44.375 48.3125 C-44.375 43.3625 -44.375 38.4125 -44.375 33.3125 C-42.43496094 32.91417969 -40.49492187 32.51585937 -38.49609375 32.10546875 C-36.5961625 31.70877981 -34.69624219 31.3120365 -32.79663086 30.91381836 C-30.84659622 30.50711125 -28.89498659 30.10797934 -26.94335938 29.70898438 C-15.75509263 27.95018735 -15.75509263 27.95018735 -7.375 21.3125 C-6.95820703 18.77019153 -6.95820703 18.77019153 -7.375 16.3125 C-13.70349169 12.09350554 -24.76945133 16.4812193 -31.875 17.875 C-33.07898438 18.10896484 -34.28296875 18.34292969 -35.5234375 18.58398438 C-38.4744201 19.15778655 -41.42477436 19.73481853 -44.375 20.3125 C-44.375 15.3625 -44.375 10.4125 -44.375 5.3125 C-39.47400622 4.14361892 -34.57019162 2.98802553 -29.66259766 1.84716797 C-28.22646877 1.51150924 -26.79111508 1.17249759 -25.35693359 0.82861328 C-7.09564644 -3.54782322 -7.09564644 -3.54782322 0 0 Z " fill="#FEFDFA" transform="translate(328.375,151.6875)"/>
<path d="M0 0 C0 8.25 0 16.5 0 25 C2.578125 24.525625 5.15625 24.05125 7.8125 23.5625 C8.62050049 23.41498291 9.42850098 23.26746582 10.26098633 23.11547852 C13.25499358 22.5591964 16.10745944 21.96418019 19 21 C25.34376437 20.46239285 29.73109576 21.31852204 35 25 C38.63812882 28.44901817 40.80252695 31.69183139 41.23828125 36.78515625 C41.45208161 46.22613011 40.33488839 53.76271781 33.75 60.875 C26.84340707 67.67901976 17.48219505 69.32977113 8.37158203 71.29248047 C6.2384986 71.75248028 4.10944976 72.22843827 1.98046875 72.70703125 C-8.37878763 75 -8.37878763 75 -13 75 C-13.02685095 72.52076199 -13.04676547 70.0418116 -13.0625 67.5625 C-13.07087891 66.85544922 -13.07925781 66.14839844 -13.08789062 65.41992188 C-13.09653588 63.61306441 -13.05220011 61.80612397 -13 60 C-11.31932098 58.31932098 -9.07753327 58.34781156 -6.78515625 57.9140625 C-5.70556641 57.70523438 -4.62597656 57.49640625 -3.51367188 57.28125 C-1.24825352 56.85047435 1.01736548 56.42075224 3.28320312 55.9921875 C8.45315803 54.990566 13.60078572 53.93940703 18.69140625 52.5859375 C19.47845947 52.37759277 20.2655127 52.16924805 21.07641602 51.95458984 C23.55820214 50.72298891 24.0691426 49.5665112 25 47 C25.23979762 44.63777768 25.23979762 44.63777768 25.125 42.25 C25.10695312 41.45078125 25.08890625 40.6515625 25.0703125 39.828125 C25.04710937 39.22484375 25.02390625 38.6215625 25 38 C17.14082197 37.52066004 9.82601247 39.31905719 2.1875 41 C-0.42231307 41.56664794 -3.03324083 42.12765213 -5.64453125 42.6875 C-6.79284424 42.93886719 -7.94115723 43.19023437 -9.12426758 43.44921875 C-12 44 -12 44 -15 44 C-15 30.47 -15 16.94 -15 3 C-7 0 -7 0 0 0 Z " fill="#FEFDFB" transform="translate(220,170)"/>
<path d="M0 0 C-0.74877763 22.61308442 -7.20367562 43.32879281 -16.1875 63.9375 C-16.5081543 64.67693848 -16.82880859 65.41637695 -17.15917969 66.17822266 C-17.47145508 66.87093262 -17.78373047 67.56364258 -18.10546875 68.27734375 C-18.37512451 68.87796631 -18.64478027 69.47858887 -18.92260742 70.09741211 C-20.33006293 72.58286436 -22.21568854 74.76961068 -24 77 C-28.62 73.04 -33.24 69.08 -38 65 C-37.48050781 63.80246094 -36.96101563 62.60492188 -36.42578125 61.37109375 C-28.52022373 42.99314062 -22.64456373 24.88711924 -20 5 C-5.76923077 0 -5.76923077 0 0 0 Z " fill="#193C5B" transform="translate(405,216)"/>
<path d="M0 0 C2.64 1.98 5.28 3.96 8 6 C-0.07156562 20.83544742 -9.26612135 33.84282126 -21 46 C-21.80050781 46.86367188 -22.60101563 47.72734375 -23.42578125 48.6171875 C-48.06168643 74.50303222 -87.15424048 89.11243703 -122.50390625 90.09765625 C-123.51324219 90.08605469 -124.52257812 90.07445312 -125.5625 90.0625 C-126.59503906 90.05347656 -127.62757813 90.04445313 -128.69140625 90.03515625 C-129.45324219 90.02355469 -130.21507812 90.01195312 -131 90 C-131 87.36 -131 84.72 -131 82 C-130.30261719 81.98582031 -129.60523438 81.97164063 -128.88671875 81.95703125 C-89.46803117 80.17621142 -51.57237712 65.80294402 -23.94921875 37.1953125 C-17.40388287 29.82361157 -11.76429486 21.88528281 -6.5 13.5625 C-6.0786377 12.90056641 -5.65727539 12.23863281 -5.22314453 11.55664062 C-2.90356015 7.80501459 -1.21688335 4.27893222 0 0 Z " fill="#F7BD33" transform="translate(375,302)"/>
<path d="M0 0 C0.29191637 6.55691331 0.57571256 13.11414605 0.85449219 19.67163086 C0.94973364 21.89110829 1.04667236 24.11051369 1.14550781 26.32983398 C1.82239136 41.56316729 2.14236414 56.75156874 2 72 C-9.625 75 -9.625 75 -13 75 C-13.80202014 67.52412193 -14.1375953 60.1605933 -14.09765625 52.64453125 C-14.0962413 51.61688156 -14.09482635 50.58923187 -14.09336853 49.53044128 C-14.08783066 46.29109621 -14.0752903 43.05182371 -14.0625 39.8125 C-14.05747695 37.5983083 -14.05291546 35.3841155 -14.04882812 33.16992188 C-14.03788169 27.77992372 -14.0212069 22.38996705 -14 17 C-14.60328125 17.2165625 -15.2065625 17.433125 -15.828125 17.65625 C-16.62734375 17.9346875 -17.4265625 18.213125 -18.25 18.5 C-19.03890625 18.7784375 -19.8278125 19.056875 -20.640625 19.34375 C-23 20 -23 20 -27 20 C-27.02685095 17.52076199 -27.04676547 15.0418116 -27.0625 12.5625 C-27.07506836 11.50192383 -27.07506836 11.50192383 -27.08789062 10.41992188 C-27.09653588 8.61306441 -27.05220011 6.80612397 -27 5 C-24.52722648 2.52722648 -19.083212 2.56386055 -15.75 1.9375 C-14.79480469 1.75123047 -13.83960938 1.56496094 -12.85546875 1.37304688 C-11.92863281 1.19708984 -11.00179687 1.02113281 -10.046875 0.83984375 C-9.19963867 0.67863037 -8.35240234 0.51741699 -7.47949219 0.35131836 C-4.95208355 -0.00678926 -2.54904836 -0.06124781 0 0 Z " fill="#FEFDFA" transform="translate(164,182)"/>
<path d="M0 0 C3.18884421 3.28547585 4.38198833 5.41834721 4.5 9.9375 C4.43125298 13.55993922 4.0979775 15.77694342 1.8125 18.625 C-2.57712485 22.61556805 -5.82975233 23.63135168 -11.68359375 23.515625 C-15.55153262 22.84527164 -17.25694107 20.93631791 -19.9375 18.125 C-22.77285784 13.87196324 -22.69839759 10.11741992 -21.9375 5.125 C-20.27139944 1.7446059 -17.86068972 -0.28518435 -14.6875 -2.3125 C-9.33250248 -3.4078404 -4.63016465 -2.95542424 0 0 Z " fill="#F9BF32" transform="translate(292.9375,298.875)"/>
<path d="M0 0 C0 4.95 0 9.9 0 15 C-4.37332672 16.00784484 -8.74840426 17.00653962 -13.125 18 C-14.3625 18.28617188 -15.6 18.57234375 -16.875 18.8671875 C-18.07382813 19.13789063 -19.27265625 19.40859375 -20.5078125 19.6875 C-21.60754395 19.93886719 -22.70727539 20.19023437 -23.84033203 20.44921875 C-27 21 -27 21 -33 21 C-33 16.05 -33 11.1 -33 6 C-29.10490588 5.14067523 -25.20930913 4.28458848 -21.31176758 3.43652344 C-19.98746569 3.14737314 -18.66356448 2.85638115 -17.34008789 2.56347656 C-15.43223006 2.14158096 -13.5227677 1.72696218 -11.61328125 1.3125 C-9.89298706 0.93544922 -9.89298706 0.93544922 -8.13793945 0.55078125 C-5 0 -5 0 0 0 Z " fill="#FEFEFC" transform="translate(257,162)"/>
<path d="M0 0 C3.26492274 3.91640962 6.03134392 8.01312695 8.75 12.3125 C9.16121094 12.95767578 9.57242187 13.60285156 9.99609375 14.26757812 C10.99996311 15.84341957 12.00034356 17.42148267 13 19 C10.10914979 22.56185035 7.281876 25.85523366 3.8125 28.875 C3.13832031 29.47054687 2.46414063 30.06609375 1.76953125 30.6796875 C0 32 0 32 -2 32 C-4.18070063 29.26866826 -5.92064571 26.22441147 -7.75 23.25 C-8.28238281 22.425 -8.81476563 21.6 -9.36328125 20.75 C-9.85699219 19.95078125 -10.35070312 19.1515625 -10.859375 18.328125 C-11.31795898 17.5949707 -11.77654297 16.86181641 -12.24902344 16.10644531 C-13 14 -13 14 -12.29638672 11.890625 C-10.37904228 9.09440743 -7.91159254 6.96468993 -5.375 4.75 C-4.859375 4.29109375 -4.34375 3.8321875 -3.8125 3.359375 C-2.5465398 2.23407704 -1.27392058 1.11627823 0 0 Z " fill="#1A3C5A" transform="translate(283,100)"/>
<path d="M0 0 C1.98285228 2.40027292 3.5415414 5.11098732 5.1875 7.75 C5.66380859 8.47960937 6.14011719 9.20921875 6.63085938 9.9609375 C7.07623047 10.66992188 7.52160156 11.37890625 7.98046875 12.109375 C8.39192139 12.75874023 8.80337402 13.40810547 9.22729492 14.07714844 C10.19757987 16.49167111 9.92225995 17.60168587 9 20 C5.98928201 23.67449833 2.13366265 27.63790706 -2 30 C-5.41255379 28.86248207 -5.69510839 28.34702901 -7.48046875 25.40234375 C-7.92197266 24.68369141 -8.36347656 23.96503906 -8.81835938 23.22460938 C-9.49608398 22.09249023 -9.49608398 22.09249023 -10.1875 20.9375 C-10.65091797 20.17888672 -11.11433594 19.42027344 -11.59179688 18.63867188 C-12.73566706 16.76366817 -13.87128255 14.88415078 -15 13 C-14.26136719 12.26394531 -13.52273437 11.52789062 -12.76171875 10.76953125 C-11.10775863 9.11089231 -9.46169462 7.44423607 -7.83203125 5.76171875 C-7.16558594 5.07722656 -6.49914062 4.39273438 -5.8125 3.6875 C-5.13832031 2.99011719 -4.46414062 2.29273437 -3.76953125 1.57421875 C-2 0 -2 0 0 0 Z " fill="#1B3C5A" transform="translate(241,108)"/>
<path d="M0 0 C2.46162514 0.2153389 3.62785785 0.59524174 5.31201172 2.42700195 C6.51697945 4.37974455 7.71268192 6.33396812 8.875 8.3125 C9.30296875 8.98990234 9.7309375 9.66730469 10.171875 10.36523438 C13.12634574 15.30383497 13.12634574 15.30383497 12.609375 18.15234375 C10.37044307 20.72276803 7.93792414 23.01232004 5.375 25.25 C4.859375 25.70890625 4.34375 26.1678125 3.8125 26.640625 C2.5465398 27.76592296 1.27392058 28.88372177 0 30 C-3.2076796 27.14756831 -5.46216853 23.61549718 -7.8125 20.0625 C-8.24498047 19.44181641 -8.67746094 18.82113281 -9.12304688 18.18164062 C-10.33203125 16.34765625 -10.33203125 16.34765625 -12 13 C-11.21954933 9.45987577 -8.71863768 7.64386306 -6 5.375 C-3.92339664 3.6266832 -1.92037235 1.92037235 0 0 Z " fill="#1B3C5A" transform="translate(269,81)"/>
<path d="M0 0 C3.37320624 1.12440208 3.68147022 1.61019545 5.48046875 4.4921875 C5.92197266 5.19730469 6.36347656 5.90242188 6.81835938 6.62890625 C7.27017578 7.37011719 7.72199219 8.11132812 8.1875 8.875 C8.65091797 9.60847656 9.11433594 10.34195313 9.59179688 11.09765625 C13 16.60900681 13 16.60900681 13 20 C8.32949498 24.99346547 3.69868674 26.76076119 -3 27 C-4.12837409 25.41906946 -5.25256518 23.83515284 -6.375 22.25 C-7.00148438 21.36828125 -7.62796875 20.4865625 -8.2734375 19.578125 C-12 14.01357466 -12 14.01357466 -12 10 C-10.390625 8.28125 -10.390625 8.28125 -8.25 6.5 C-7.55390625 5.9121875 -6.8578125 5.324375 -6.140625 4.71875 C-5.43421875 4.1515625 -4.7278125 3.584375 -4 3 C-3.31421875 2.4121875 -2.6284375 1.824375 -1.921875 1.21875 C-1.28765625 0.8165625 -0.6534375 0.414375 0 0 Z " fill="#1B3C5A" transform="translate(267,115)"/>
<path d="M0 0 C2.7766173 3.39843181 5.37670452 6.84887078 7.8125 10.5 C8.43769531 11.4178125 9.06289063 12.335625 9.70703125 13.28125 C11 16 11 16 11.00390625 18.54296875 C9.66180366 21.82772567 7.78763101 23.48559203 5.125 25.8125 C3.79855469 26.99779297 3.79855469 26.99779297 2.4453125 28.20703125 C0 30 0 30 -3 30 C-5.12762518 27.68276054 -6.66080926 24.92042587 -8.3125 22.25 C-8.79267578 21.52039063 -9.27285156 20.79078125 -9.76757812 20.0390625 C-10.43370117 18.97558594 -10.43370117 18.97558594 -11.11328125 17.890625 C-11.72876831 16.91657715 -11.72876831 16.91657715 -12.35668945 15.92285156 C-13 14 -13 14 -12.28051758 11.91796875 C-10.39231839 9.08980997 -7.91749996 6.96984768 -5.375 4.75 C-4.859375 4.29109375 -4.34375 3.8321875 -3.8125 3.359375 C-2.5465398 2.23407704 -1.27392058 1.11627823 0 0 Z " fill="#1B3D5A" transform="translate(255,94)"/>
<path d="M0 0 C3.39811867 3.13672493 5.9284038 6.60487753 8.375 10.5 C8.75527344 11.06847656 9.13554687 11.63695312 9.52734375 12.22265625 C12.13739673 16.37369992 12.13739673 16.37369992 11.53125 19.13671875 C9.58600194 21.50376805 7.50532712 23.38069149 5.125 25.3125 C4.26132813 26.03050781 3.39765625 26.74851563 2.5078125 27.48828125 C0 29 0 29 -2.00927734 28.80566406 C-4.47165901 27.80911519 -5.05349858 26.90637749 -6.359375 24.62109375 C-6.75253906 23.94755859 -7.14570313 23.27402344 -7.55078125 22.58007812 C-7.94652344 21.87302734 -8.34226563 21.16597656 -8.75 20.4375 C-9.16121094 19.72658203 -9.57242188 19.01566406 -9.99609375 18.28320312 C-11.00878358 16.52865912 -12.00590921 14.76514839 -13 13 C-9.02896734 8.1408507 -4.8858777 3.94628584 0 0 Z " fill="#1B3C5A" transform="translate(224,122)"/>
<path d="M0 0 C0.66 0 1.32 0 2 0 C4.13138597 2.73806947 5.83176154 5.78250895 7.625 8.75 C8.140625 9.575 8.65625 10.4 9.1875 11.25 C9.91839844 12.44882813 9.91839844 12.44882813 10.6640625 13.671875 C11.11217285 14.4050293 11.5602832 15.13818359 12.02197266 15.89355469 C13 18 13 18 13 22 C10.8828125 24.359375 10.8828125 24.359375 8.125 26.75 C7.22007812 27.54921875 6.31515625 28.3484375 5.3828125 29.171875 C3 31 3 31 1 31 C-1.13138597 28.26193053 -2.83176154 25.21749105 -4.625 22.25 C-5.140625 21.425 -5.65625 20.6 -6.1875 19.75 C-6.67476563 18.95078125 -7.16203125 18.1515625 -7.6640625 17.328125 C-8.33622803 16.22839355 -8.33622803 16.22839355 -9.02197266 15.10644531 C-10 13 -10 13 -10 9 C-8.3203125 7.1484375 -8.3203125 7.1484375 -6.125 5.375 C-5.40570313 4.78460938 -4.68640625 4.19421875 -3.9453125 3.5859375 C-3.30335938 3.06257813 -2.66140625 2.53921875 -2 2 C-1.34 1.34 -0.68 0.68 0 0 Z " fill="#1D3D5A" transform="translate(323,97)"/>
<path d="M0 0 C0.66 0 1.32 0 2 0 C4.18070063 2.73133174 5.92064571 5.77558853 7.75 8.75 C8.28238281 9.575 8.81476563 10.4 9.36328125 11.25 C9.85699219 12.04921875 10.35070312 12.8484375 10.859375 13.671875 C11.31795898 14.4050293 11.77654297 15.13818359 12.24902344 15.89355469 C13 18 13 18 12.26904297 20.13671875 C10.60040167 22.58671305 8.62298069 24.32315941 6.375 26.25 C5.14910156 27.30960938 5.14910156 27.30960938 3.8984375 28.390625 C2.95871094 29.18726563 2.95871094 29.18726563 2 30 C-1.61224031 26.68670371 -4.17608056 23.02586058 -6.8125 18.9375 C-7.44188477 18.00067383 -7.44188477 18.00067383 -8.08398438 17.04492188 C-9.14003201 15.41474621 -10.0793818 13.71031326 -11 12 C-9.85996765 8.57990294 -8.77829802 7.71130558 -6.0625 5.4375 C-3.96656037 3.66869432 -1.94005112 1.94005112 0 0 Z " fill="#1B3D5A" transform="translate(296,88)"/>
<path d="M0 0 C3.61224031 3.31329629 6.17608056 6.97413942 8.8125 11.0625 C9.23208984 11.68705078 9.65167969 12.31160156 10.08398438 12.95507812 C11.14003201 14.58525379 12.0793818 16.28968674 13 18 C11.86728288 21.39815137 10.8090686 22.28644916 8.125 24.5625 C7.42632812 25.16191406 6.72765625 25.76132813 6.0078125 26.37890625 C4 28 4 28 1 30 C-1.35819838 26.68357115 -3.683685 23.34578833 -6 20 C-6.54398437 19.23945312 -7.08796875 18.47890625 -7.6484375 17.6953125 C-8.11507813 17.01210937 -8.58171875 16.32890625 -9.0625 15.625 C-9.48660156 15.01914063 -9.91070312 14.41328125 -10.34765625 13.7890625 C-11 12 -11 12 -10.41015625 10.0390625 C-8.67298281 7.52713858 -6.69251626 5.73644251 -4.375 3.75 C-3.14910156 2.69039063 -3.14910156 2.69039063 -1.8984375 1.609375 C-1.27195312 1.07828125 -0.64546875 0.5471875 0 0 Z " fill="#1C3D5A" transform="translate(310,76)"/>
<path d="M0 0 C3.44248059 3.14785388 5.85921194 6.65806277 8.25 10.625 C8.61351562 11.21023437 8.97703125 11.79546875 9.3515625 12.3984375 C12 16.73948543 12 16.73948543 12 19 C10.3203125 20.65625 10.3203125 20.65625 8.125 22.5 C6.00964496 24.28933258 3.95980876 26.04019124 2 28 C-0.46162514 27.7846611 -1.62785785 27.40475826 -3.31201172 25.57299805 C-4.51697945 23.62025545 -5.71268192 21.66603188 -6.875 19.6875 C-7.51695312 18.67139648 -7.51695312 18.67139648 -8.171875 17.63476562 C-11.13832772 12.67613633 -11.13832772 12.67613633 -10.546875 9.78515625 C-8.62745655 7.5700698 -6.60134565 5.65829627 -4.375 3.75 C-3.14910156 2.69039063 -3.14910156 2.69039063 -1.8984375 1.609375 C-1.27195312 1.07828125 -0.64546875 0.5471875 0 0 Z " fill="#1B3C5A" transform="translate(284,68)"/>
<path d="M0 0 C3.45451322 3.25510585 5.70164247 7.05179405 8.1875 11.0625 C8.65091797 11.79533203 9.11433594 12.52816406 9.59179688 13.28320312 C10.24825195 14.33604492 10.24825195 14.33604492 10.91796875 15.41015625 C11.31781982 16.05090088 11.7176709 16.69164551 12.12963867 17.35180664 C13 19 13 19 13 21 C11.29456816 21.50980881 9.58547682 22.00738268 7.875 22.5 C6.92367188 22.7784375 5.97234375 23.056875 4.9921875 23.34375 C1.75126531 24.05455278 -0.70424141 24.48296055 -4 24 C-6.15234375 21.734375 -6.15234375 21.734375 -7.9375 18.75 C-8.54464844 17.77546875 -9.15179688 16.8009375 -9.77734375 15.796875 C-11 13 -11 13 -11.0078125 10.9375 C-9.51368317 8.06506532 -7.38006978 6.35246513 -4.9375 4.25 C-4.01839844 3.45078125 -3.09929687 2.6515625 -2.15234375 1.828125 C-1.44207031 1.22484375 -0.73179687 0.6215625 0 0 Z " fill="#1D3D5A" transform="translate(310,109)"/>
<path d="M0 0 C0.62068966 8.22413793 0.62068966 8.22413793 -1.5 10.875 C-2.325 11.24625 -3.15 11.6175 -4 12 C-5.134375 12.53625 -6.26875 13.0725 -7.4375 13.625 C-13.0488831 15.64424771 -19.07260674 15.96518418 -25 16 C-26 15 -26 15 -26.09765625 12.93359375 C-26.08605469 12.10988281 -26.07445312 11.28617187 -26.0625 10.4375 C-26.05347656 9.61121094 -26.04445312 8.78492188 -26.03515625 7.93359375 C-26.02355469 7.29550781 -26.01195312 6.65742188 -26 6 C-16.94058858 1.14802274 -10.21362468 -0.18166526 0 0 Z " fill="#F1F1F4" transform="translate(269,258)"/>
<path d="M0 0 C0.62068966 8.22413793 0.62068966 8.22413793 -1.5 10.875 C-2.325 11.24625 -3.15 11.6175 -4 12 C-5.134375 12.53625 -6.26875 13.0725 -7.4375 13.625 C-13.0488831 15.64424771 -19.07260674 15.96518418 -25 16 C-26 15 -26 15 -26.09765625 12.93359375 C-26.08605469 12.10988281 -26.07445312 11.28617187 -26.0625 10.4375 C-26.05347656 9.61121094 -26.04445313 8.78492188 -26.03515625 7.93359375 C-26.02355469 7.29550781 -26.01195312 6.65742188 -26 6 C-16.94058858 1.14802274 -10.21362468 -0.18166526 0 0 Z " fill="#F1F1F4" transform="translate(303,250)"/>
<path d="M0 0 C0.61837192 8.19342793 0.61837192 8.19342793 -1.4375 10.875 C-9.4816304 14.40656944 -17.29099498 15.80824142 -26 17 C-25.67 12.71 -25.34 8.42 -25 4 C-8.29157175 -0.59225513 -8.29157175 -0.59225513 0 0 Z " fill="#F7F7F9" transform="translate(337,242)"/>
<path d="M0 0 C3.87832274 0.92233016 5.42507928 2.38197014 8.00390625 5.4765625 C9.00301339 9.57207607 8.39788071 12.63488978 6.62890625 16.4140625 C4.8093116 18.72354802 3.90415759 19.35275583 1.015625 19.75 C-3.20385151 19.93438049 -5.40740879 19.84899584 -9.05859375 17.5390625 C-11.66285898 13.42264327 -12.04313378 10.2225718 -10.99609375 5.4765625 C-8.10090383 1.04330293 -5.38398981 -0.38821938 0 0 Z " fill="#F8BE32" transform="translate(193.99609375,299.5234375)"/>
<path d="M0 0 C4.03441111 1.3448037 5.12667247 3.95309903 7.1875 7.4375 C7.55552734 8.03626953 7.92355469 8.63503906 8.30273438 9.25195312 C11 13.72070675 11 13.72070675 11 16 C7.89857059 16.70026518 4.7935359 17.38298456 1.6875 18.0625 C0.80642578 18.26166016 -0.07464844 18.46082031 -0.98242188 18.66601562 C-1.82998047 18.84970703 -2.67753906 19.03339844 -3.55078125 19.22265625 C-4.33106689 19.39547119 -5.11135254 19.56828613 -5.9152832 19.74633789 C-8 20 -8 20 -11 19 C-11.99 17.02 -12.98 15.04 -14 13 C-9.38 8.71 -4.76 4.42 0 0 Z " fill="#1F3E5A" transform="translate(208,136)"/>
<path d="M0 0 C2.81761418 2.68285872 5.10270657 5.38237002 7.25 8.625 C7.77078125 9.40101563 8.2915625 10.17703125 8.828125 10.9765625 C10 13 10 13 10 15 C-4.92933861 18.77162239 -4.92933861 18.77162239 -10 18 C-11.9375 16 -11.9375 16 -13 14 C-11.43416404 9.96278439 -8.55826135 7.52929418 -5.375 4.75 C-4.859375 4.29109375 -4.34375 3.8321875 -3.8125 3.359375 C-2.5465398 2.23407704 -1.27392058 1.11627823 0 0 Z " fill="#1F3E5A" transform="translate(252,128)"/>
<path d="M0 0 C1.04897461 -0.00580078 1.04897461 -0.00580078 2.11914062 -0.01171875 C6.24715562 -0.00399562 10.13877695 0.32415368 14.1875 1.125 C13.59179688 3.01855469 13.59179688 3.01855469 12.1875 5.125 C9.33007812 6.12988281 9.33007812 6.12988281 5.71875 6.828125 C4.42582031 7.0859375 3.13289063 7.34375 1.80078125 7.609375 C0.42972601 7.86479012 -0.94136823 8.11999603 -2.3125 8.375 C-3.68389676 8.64429481 -5.05499575 8.91511081 -6.42578125 9.1875 C-16.34064094 11.125 -16.34064094 11.125 -18.8125 11.125 C-17.37429187 6.09127156 -14.91004485 4.13544111 -10.8125 1.125 C-7.16155939 -0.0919802 -3.799248 -0.02066681 0 0 Z " fill="#27435B" transform="translate(98.8125,169.875)"/>
<path d="M0 0 C1.5078125 2.1171875 1.5078125 2.1171875 3.125 4.875 C3.66382813 5.77992187 4.20265625 6.68484375 4.7578125 7.6171875 C6 10 6 10 6 12 C3.41932437 12.69918305 0.83627153 13.38461049 -1.75 14.0625 C-2.47960937 14.26166016 -3.20921875 14.46082031 -3.9609375 14.66601562 C-7.71031044 15.63744407 -10.30274238 16.15449387 -14 15 C-14.33 13.68 -14.66 12.36 -15 11 C-2.54775281 0 -2.54775281 0 0 0 Z " fill="#22405A" transform="translate(298,122)"/>
<path d="M0 0 C3.63754874 1.21251625 3.98524248 2.1332237 5.92578125 5.33984375 C6.47556641 6.23896484 7.02535156 7.13808594 7.59179688 8.06445312 C8.15962891 9.01255859 8.72746094 9.96066406 9.3125 10.9375 C9.86873047 11.85080078 10.42496094 12.76410156 10.99804688 13.70507812 C12.67536436 16.464158 14.33959622 19.23071325 16 22 C16.57927246 22.96437988 17.15854492 23.92875977 17.75537109 24.92236328 C19.17146164 27.28085065 20.5863397 29.64005543 22 32 C22.8971875 31.7525 22.8971875 31.7525 23.8125 31.5 C26 31 26 31 29 31 C27.68 32.32 26.36 33.64 25 35 C26.37287342 38.69876091 28.06355453 41.9514476 30.125 45.3125 C30.66382813 46.19550781 31.20265625 47.07851562 31.7578125 47.98828125 C32.16773438 48.65214844 32.57765625 49.31601563 33 50 C32.01 50 31.02 50 30 50 C28.24609375 47.59375 28.24609375 47.59375 26.4375 44.5 C25.34288929 42.63563079 24.20795438 40.79301181 23 39 C20.23776722 39 19.10718546 40.31425163 17 42 C17.309375 41.4225 17.61875 40.845 17.9375 40.25 C18.96216704 38.08011686 19.64104167 36.36796258 20 34 C19.33029498 32.10828899 19.33029498 32.10828899 18.12890625 30.328125 C17.51499023 29.33232422 17.51499023 29.33232422 16.88867188 28.31640625 C16.45103516 27.63449219 16.01339844 26.95257813 15.5625 26.25 C15.12873047 25.55261719 14.69496094 24.85523437 14.24804688 24.13671875 C13.17647973 22.41750114 12.08967644 20.707797 11 19 C7.61637345 19.74132182 5.83571491 20.72541153 3.25 23.0625 C2.63640625 23.61035156 2.0228125 24.15820312 1.390625 24.72265625 C0.70226562 25.35494141 0.70226562 25.35494141 0 26 C1.62840299 22.59780091 3.48285384 19.83178943 6 17 C6.66 17 7.32 17 8 17 C6.09547169 12.18856005 3.85753254 8.00732762 0.98828125 3.69921875 C0 2 0 2 0 0 Z " fill="#EDB737" transform="translate(261,63)"/>
<path d="M0 0 C0 0.66 0 1.32 0 2 C-1.76949612 2.50471197 -3.54065223 3.00360685 -5.3125 3.5 C-6.79169922 3.91765625 -6.79169922 3.91765625 -8.30078125 4.34375 C-11 5 -11 5 -14 5 C-14 5.99 -14 6.98 -14 8 C-8.555 7.01 -8.555 7.01 -3 6 C-3 6.66 -3 7.32 -3 8 C-6.82320557 9.42258812 -9.91281305 10.24042276 -14 10 C-14 12.31 -14 14.62 -14 17 C-16.97 17.33 -19.94 17.66 -23 18 C-22.67 13.71 -22.34 9.42 -22 5 C-16.66666667 3.66666667 -11.33333333 2.33333333 -6 1 C-4.95150879 0.72240845 -4.95150879 0.72240845 -3.88183594 0.43920898 C-2 0 -2 0 0 0 Z " fill="#F3F3F5" transform="translate(237,263)"/>
<path d="M0 0 C3.5625 0.3125 3.5625 0.3125 5.5625 1.375 C7.19628851 4.54046524 6.41517564 6.96270286 5.5625 10.3125 C2.5625 12.3125 2.5625 12.3125 -1 12.1875 C-4.4375 11.3125 -4.4375 11.3125 -5.9375 9.5625 C-6.55461912 6.78546397 -6.29133055 5.01629676 -5.4375 2.3125 C-3.4375 0.3125 -3.4375 0.3125 0 0 Z " fill="#F6BD33" transform="translate(338.4375,300.6875)"/>
<path d="M0 0 C3.28426103 1.05565533 4.57151556 2.61660352 6.25 5.5 C8 9 8 9 8 11 C9.60599349 9.73147606 11.20972575 8.460089 12.8125 7.1875 C13.70582031 6.47980469 14.59914063 5.77210937 15.51953125 5.04296875 C17.94307592 3.12613931 17.94307592 3.12613931 19.69921875 1.23828125 C21 0 21 0 23 0 C21.44997253 3.88397689 18.99523379 6.02979619 15.875 8.75 C14.96492188 9.54921875 14.05484375 10.3484375 13.1171875 11.171875 C12.41851562 11.77515625 11.71984375 12.3784375 11 13 C12.98 16.63 14.96 20.26 17 24 C16.01 24 15.02 24 14 24 C12.61328125 22.25 12.61328125 22.25 11.3125 20 C10.87550781 19.2575 10.43851562 18.515 9.98828125 17.75 C9.66214844 17.1725 9.33601563 16.595 9 16 C4.72545575 18.7479213 0.85873847 21.69250989 -3 25 C-0.92623208 20.33402219 1.74167343 16.83888438 6 14 C5.59419011 9.53609119 3.73792464 6.97394904 1.05859375 3.55078125 C0 2 0 2 0 0 Z " fill="#EDB737" transform="translate(302,61)"/>
<path d="M0 0 C1.22589844 0.01353516 1.22589844 0.01353516 2.4765625 0.02734375 C3.41628906 0.04474609 3.41628906 0.04474609 4.375 0.0625 C4.99816911 8.31949068 4.99816911 8.31949068 2.75 11 C-2.20478737 13.2166154 -6.15373347 14.3230365 -11.625 14.0625 C-9.0595406 11.4970406 -7.14813332 11.52203913 -3.625 11.0625 C-3.625 8.0925 -3.625 5.1225 -3.625 2.0625 C-4.615 1.7325 -5.605 1.4025 -6.625 1.0625 C-4.21954362 -0.14022819 -2.67503047 -0.03821472 0 0 Z " fill="#F9F9FA" transform="translate(332.625,241.9375)"/>
<path d="M0 0 C-0.99 0.495 -0.99 0.495 -2 1 C-4.32304053 3.32304053 -4.31765651 3.90287345 -4.375 7.0625 C-4.42144512 11.00314251 -4.42144512 11.00314251 -2 13 C-3.64507218 13.19406478 -5.29109594 13.38007935 -6.9375 13.5625 C-8.31228516 13.71912109 -8.31228516 13.71912109 -9.71484375 13.87890625 C-10.46894531 13.91886719 -11.22304687 13.95882813 -12 14 C-13 13 -13 13 -13.09765625 10.93359375 C-13.08605469 10.10988281 -13.07445312 9.28617187 -13.0625 8.4375 C-13.05347656 7.61121094 -13.04445312 6.78492188 -13.03515625 5.93359375 C-13.02355469 5.29550781 -13.01195312 4.65742188 -13 4 C-8.38987758 1.04952165 -5.63470383 -0.5497272 0 0 Z " fill="#FAFAFB" transform="translate(256,260)"/>
<path d="M0 0 C-0.99 0.495 -0.99 0.495 -2 1 C-4.32304053 3.32304053 -4.31765651 3.90287345 -4.375 7.0625 C-4.42144512 11.00314251 -4.42144512 11.00314251 -2 13 C-3.64507218 13.19406478 -5.29109594 13.38007935 -6.9375 13.5625 C-8.31228516 13.71912109 -8.31228516 13.71912109 -9.71484375 13.87890625 C-10.46894531 13.91886719 -11.22304688 13.95882813 -12 14 C-13 13 -13 13 -13.09765625 10.93359375 C-13.08605469 10.10988281 -13.07445312 9.28617187 -13.0625 8.4375 C-13.05347656 7.61121094 -13.04445313 6.78492188 -13.03515625 5.93359375 C-13.02355469 5.29550781 -13.01195312 4.65742188 -13 4 C-8.38987758 1.04952165 -5.63470383 -0.5497272 0 0 Z " fill="#FAFAFB" transform="translate(290,252)"/>
<path d="M0 0 C1.38125018 2.76250036 1.19079306 4.94731099 1 8 C-1 10 -1 10 -4.5 10.25 C-8 10 -8 10 -10 8 C-10.32954432 4.90228335 -10.45334601 2.82668977 -8.9375 0.0625 C-5.81857551 -1.64787795 -3.34442199 -0.80513863 0 0 Z " fill="#F7BD33" transform="translate(273,342)"/>
<path d="M0 0 C0.75 2.25 0.75 2.25 1 5 C-0.625 7.3125 -0.625 7.3125 -3 9 C-5.96370298 9.50599807 -7.33058007 9.42396595 -9.875 7.8125 C-11 6 -11 6 -10.6875 3.3125 C-10.460625 2.549375 -10.23375 1.78625 -10 1 C-6.59437148 0.22157062 -3.49234244 -0.09978121 0 0 Z " fill="#F1B935" transform="translate(256,285)"/>
<path d="M0 0 C1.670625 0.061875 1.670625 0.061875 3.375 0.125 C3.375 2.765 3.375 5.405 3.375 8.125 C0.24001708 9.98276765 -1.99971432 10.32640476 -5.625 10.125 C-5.8203125 4.0703125 -5.8203125 4.0703125 -5.625 2.125 C-3.625 0.125 -3.625 0.125 0 0 Z " fill="#1E4060" transform="translate(256.625,260.875)"/>
<path d="M0 0 C1.670625 0.061875 1.670625 0.061875 3.375 0.125 C3.375 2.765 3.375 5.405 3.375 8.125 C0.24001708 9.98276765 -1.99971432 10.32640476 -5.625 10.125 C-5.8203125 4.0703125 -5.8203125 4.0703125 -5.625 2.125 C-3.625 0.125 -3.625 0.125 0 0 Z " fill="#1E4060" transform="translate(290.625,252.875)"/>
<path d="M0 0 C0 2.64 0 5.28 0 8 C-2.97 8.66 -5.94 9.32 -9 10 C-9 7.03 -9 4.06 -9 1 C-5.8035914 -0.06546953 -3.34252724 -0.07427838 0 0 Z " fill="#1E4060" transform="translate(329,245)"/>
<path d="M0 0 C0.99 0.33 1.98 0.66 3 1 C4.1875 3.5625 4.1875 3.5625 5 6 C3.23225581 6.53122363 1.46065917 7.04964073 -0.3125 7.5625 C-1.29863281 7.85253906 -2.28476562 8.14257812 -3.30078125 8.44140625 C-6 9 -6 9 -9 8 C-7.87811441 6.85111717 -6.75238316 5.70598863 -5.625 4.5625 C-4.99851562 3.92441406 -4.37203125 3.28632812 -3.7265625 2.62890625 C-2 1 -2 1 0 0 Z " fill="#33485A" transform="translate(337,120)"/>
<path d="M0 0 C1 1 1 1 1.125 3.5 C1 6 1 6 0 7 C-3 7.125 -3 7.125 -6 7 C-7 6 -7 6 -7.0625 2.9375 C-7.041875 1.968125 -7.02125 0.99875 -7 0 C-4.31633121 -1.3418344 -2.84719317 -0.73004953 0 0 Z " fill="#F7BD32" transform="translate(175,279)"/>
<path d="M0 0 C0.66 0 1.32 0 2 0 C0.65396955 3.03867819 -0.80424173 5.00385612 -3.2578125 7.234375 C-4.19560547 8.09482422 -4.19560547 8.09482422 -5.15234375 8.97265625 C-5.80332031 9.55917969 -6.45429688 10.14570312 -7.125 10.75 C-7.78371094 11.35199219 -8.44242187 11.95398438 -9.12109375 12.57421875 C-10.74268509 14.05480215 -12.36902454 15.52977125 -14 17 C-14 12.92412524 -12.74008328 12.01409161 -10 9 C-7.968418 7.14106232 -5.90183723 5.33533697 -3.8046875 3.55078125 C-1.92288746 1.97318991 -1.92288746 1.97318991 0 0 Z " fill="#ECB638" transform="translate(341,78)"/>
<path d="M0 0 C1.37562854 1.28965176 2.70766393 2.62689293 4 4 C4 4.66 4 5.32 4 6 C0.04 6.66 -3.92 7.32 -8 8 C-5.58443874 4.80800833 -3.31996462 2.25283313 0 0 Z " fill="#384A5B" transform="translate(192,151)"/>
<path d="M0 0 C0.66 0 1.32 0 2 0 C3.14501953 1.46875 3.14501953 1.46875 4.3828125 3.5 C5.04990234 4.5828125 5.04990234 4.5828125 5.73046875 5.6875 C6.42076172 6.8321875 6.42076172 6.8321875 7.125 8 C7.82689453 9.1446875 7.82689453 9.1446875 8.54296875 10.3125 C9.7018143 12.20449273 10.85376747 14.10034852 12 16 C11.01 16.33 10.02 16.66 9 17 C7.49462965 14.54481265 5.99555574 12.0861548 4.5 9.625 C4.07074219 8.92632812 3.64148438 8.22765625 3.19921875 7.5078125 C0 2.2265625 0 2.2265625 0 0 Z " fill="#EAB439" transform="translate(212,100)"/>
<path d="M0 0 C0.66 0 1.32 0 2 0 C4 3 4 3 4 6 C0.7 6.33 -2.6 6.66 -6 7 C-4.71937515 5.2925002 -3.38232443 3.62626404 -2 2 C-1.34 2 -0.68 2 0 2 C0 1.34 0 0.68 0 0 Z " fill="#3E4D5A" transform="translate(236,142)"/>
<path d="M0 0 C0 0.66 0 1.32 0 2 C-1.74635165 2.53293835 -3.49727652 3.05090663 -5.25 3.5625 C-6.22453125 3.85253906 -7.1990625 4.14257812 -8.203125 4.44140625 C-10.96243932 4.99249836 -12.3912824 4.93789609 -15 4 C-12.02775596 2.01850397 -10.37032887 1.51201979 -6.9375 0.875 C-6.05964844 0.70742188 -5.18179688 0.53984375 -4.27734375 0.3671875 C-2 0 -2 0 0 0 Z " fill="#D8D9E1" transform="translate(237,263)"/>
<path d="M0 0 C-1.43605193 3.38818502 -3.20466579 5.3186598 -6 7.6875 C-6.70125 8.28949219 -7.4025 8.89148438 -8.125 9.51171875 C-10 11 -10 11 -12 12 C-10.43873668 8.16780823 -7.97133075 5.82638778 -5 3 C-4.443125 2.401875 -3.88625 1.80375 -3.3125 1.1875 C-2 0 -2 0 0 0 Z " fill="#E9B439" transform="translate(359,99)"/>
<path d="M0 0 C-0.33 2.64 -0.66 5.28 -1 8 C-1.33 8 -1.66 8 -2 8 C-2 6.02 -2 4.04 -2 2 C-4.31 1.67 -6.62 1.34 -9 1 C-9 0.67 -9 0.34 -9 0 C-3.375 -1.125 -3.375 -1.125 0 0 Z " fill="#C8C9D4" transform="translate(262,259)"/>
<path d="M0 0 C-0.33 2.64 -0.66 5.28 -1 8 C-1.33 8 -1.66 8 -2 8 C-2 6.02 -2 4.04 -2 2 C-4.31 1.67 -6.62 1.34 -9 1 C-9 0.67 -9 0.34 -9 0 C-3.375 -1.125 -3.375 -1.125 0 0 Z " fill="#C8C9D4" transform="translate(296,251)"/>
<path d="M0 0 C0 0.33 0 0.66 0 1 C-4.455 1.495 -4.455 1.495 -9 2 C-9.33 1.34 -9.66 0.68 -10 0 C-6.30581799 -1.231394 -3.7943739 -0.64432764 0 0 Z " fill="#C6C8D3" transform="translate(329,244)"/>
</svg>
